<svg xmlns="http://www.w3.org/2000/svg" viewBox="0 0 500 500"><g id="freepik--background-complete--inject-2"><rect y="382.4" width="500" height="0.25" style="fill:#ebebeb"></rect><rect x="416.78" y="398.49" width="33.12" height="0.25" style="fill:#ebebeb"></rect><rect x="322.53" y="401.21" width="8.69" height="0.25" style="fill:#ebebeb"></rect><rect x="396.59" y="389.21" width="19.19" height="0.25" style="fill:#ebebeb"></rect><rect x="52.46" y="390.89" width="43.19" height="0.25" style="fill:#ebebeb"></rect><rect x="104.56" y="390.89" width="6.33" height="0.25" style="fill:#ebebeb"></rect><rect x="131.47" y="395.11" width="93.68" height="0.25" style="fill:#ebebeb"></rect><path d="M237,337.8H43.91a5.71,5.71,0,0,1-5.7-5.71V60.66A5.71,5.71,0,0,1,43.91,55H237a5.71,5.71,0,0,1,5.71,5.71V332.09A5.71,5.71,0,0,1,237,337.8ZM43.91,55.2a5.46,5.46,0,0,0-5.45,5.46V332.09a5.46,5.46,0,0,0,5.45,5.46H237a5.47,5.47,0,0,0,5.46-5.46V60.66A5.47,5.47,0,0,0,237,55.2Z" style="fill:#ebebeb"></path><path d="M453.31,337.8H260.21a5.72,5.72,0,0,1-5.71-5.71V60.66A5.72,5.72,0,0,1,260.21,55h193.1A5.71,5.71,0,0,1,459,60.66V332.09A5.71,5.71,0,0,1,453.31,337.8ZM260.21,55.2a5.47,5.47,0,0,0-5.46,5.46V332.09a5.47,5.47,0,0,0,5.46,5.46h193.1a5.47,5.47,0,0,0,5.46-5.46V60.66a5.47,5.47,0,0,0-5.46-5.46Z" style="fill:#ebebeb"></path><polygon points="423.54 377.75 420.91 377.75 420.91 134.56 417.68 134.56 417.68 377.75 415.05 377.75 413.63 382.4 417.68 382.4 420.91 382.4 424.96 382.4 423.54 377.75" style="fill:#f0f0f0"></polygon><path d="M422.32,139.44l28.4-21.54a5,5,0,0,0-3-9H390.89a5,5,0,0,0-3,9l28.41,21.54A5,5,0,0,0,422.32,139.44Z" style="fill:#ebebeb"></path><path d="M275.26,315H210.5l-6.18-61.89a4.7,4.7,0,0,1,4.54-5.18H264a5.35,5.35,0,0,1,5.09,5.18Z" style="fill:#e6e6e6"></path><path d="M281.8,315H217l-6.18-61.89a4.7,4.7,0,0,1,4.54-5.18h55.14a5.34,5.34,0,0,1,5.08,5.18Z" style="fill:#f5f5f5"></path><path d="M218.51,300.55h44.91a0,0,0,0,1,0,0v14.4a0,0,0,0,1,0,0h-49.9a0,0,0,0,1,0,0v-9.4A5,5,0,0,1,218.51,300.55Z" style="fill:#e6e6e6"></path><path d="M253.66,300.55h57a5,5,0,0,1,5,5v9.4a0,0,0,0,1,0,0h-67a0,0,0,0,1,0,0v-9.4A5,5,0,0,1,253.66,300.55Z" style="fill:#f5f5f5"></path><rect x="210.5" y="314.95" width="4.44" height="67.45" style="fill:#e6e6e6"></rect><rect x="243.09" y="314.95" width="4.44" height="67.45" style="fill:#e6e6e6"></rect><rect x="277.63" y="314.95" width="4.44" height="67.45" style="fill:#e6e6e6"></rect><rect x="310.22" y="314.95" width="4.44" height="67.45" style="fill:#e6e6e6"></rect><path d="M408,315H343.23l-6.17-61.89a4.7,4.7,0,0,1,4.54-5.18h55.14a5.34,5.34,0,0,1,5.08,5.18Z" style="fill:#e6e6e6"></path><path d="M414.53,315H349.77l-6.17-61.89a4.7,4.7,0,0,1,4.53-5.18h55.14a5.34,5.34,0,0,1,5.09,5.18Z" style="fill:#f5f5f5"></path><path d="M351.25,300.55h44.91a0,0,0,0,1,0,0v14.4a0,0,0,0,1,0,0h-49.9a0,0,0,0,1,0,0v-9.4A5,5,0,0,1,351.25,300.55Z" style="fill:#e6e6e6"></path><path d="M386.4,300.55h57a5,5,0,0,1,5,5v9.4a0,0,0,0,1,0,0h-67a0,0,0,0,1,0,0v-9.4A5,5,0,0,1,386.4,300.55Z" style="fill:#f5f5f5"></path><rect x="343.23" y="314.95" width="4.44" height="67.45" style="fill:#e6e6e6"></rect><rect x="375.82" y="314.95" width="4.44" height="67.45" style="fill:#e6e6e6"></rect><rect x="410.37" y="314.95" width="4.44" height="67.45" style="fill:#e6e6e6"></rect><rect x="442.96" y="314.95" width="4.44" height="67.45" style="fill:#e6e6e6"></rect><path d="M142.52,315H77.76l-6.17-61.89a4.69,4.69,0,0,1,4.53-5.18h55.14a5.34,5.34,0,0,1,5.09,5.18Z" style="fill:#e6e6e6"></path><path d="M149.06,315H84.3l-6.17-61.89a4.69,4.69,0,0,1,4.53-5.18H137.8a5.35,5.35,0,0,1,5.09,5.18Z" style="fill:#f5f5f5"></path><path d="M85.77,300.55h44.91a0,0,0,0,1,0,0v14.4a0,0,0,0,1,0,0H80.78a0,0,0,0,1,0,0v-9.4A5,5,0,0,1,85.77,300.55Z" style="fill:#e6e6e6"></path><path d="M120.92,300.55h57a5,5,0,0,1,5,5v9.4a0,0,0,0,1,0,0h-67a0,0,0,0,1,0,0v-9.4A5,5,0,0,1,120.92,300.55Z" style="fill:#f5f5f5"></path><rect x="77.76" y="314.95" width="4.44" height="67.45" style="fill:#e6e6e6"></rect><rect x="110.35" y="314.95" width="4.44" height="67.45" style="fill:#e6e6e6"></rect><rect x="144.9" y="314.95" width="4.44" height="67.45" style="fill:#e6e6e6"></rect><rect x="177.49" y="314.95" width="4.44" height="67.45" style="fill:#e6e6e6"></rect><path d="M157.79,195.59H55.61V71.48H157.79Zm-101.18-1H156.79V72.48H56.61Z" style="fill:#f0f0f0"></path><rect x="55.14" y="92.95" width="103.11" height="81.18" transform="translate(240.24 26.84) rotate(90)" style="fill:#f0f0f0"></rect></g><g id="freepik--Shadow--inject-2"><ellipse id="freepik--path--inject-2" cx="250" cy="416.24" rx="193.89" ry="11.32" style="fill:#f5f5f5"></ellipse></g><g id="freepik--Chart--inject-2"><rect x="94.57" y="90.11" width="295.81" height="174.67" rx="12" ry="12" style="fill:#fff"></rect><path d="M378.37,265.28H106.57a12.51,12.51,0,0,1-12.5-12.5V102.11a12.51,12.51,0,0,1,12.5-12.5h271.8a12.51,12.51,0,0,1,12.5,12.5V252.78A12.51,12.51,0,0,1,378.37,265.28ZM106.57,90.61a11.51,11.51,0,0,0-11.5,11.5V252.78a11.51,11.51,0,0,0,11.5,11.5h271.8a11.51,11.51,0,0,0,11.5-11.5V102.11a11.51,11.51,0,0,0-11.5-11.5Z" style="fill:#E91601"></path><rect x="163.14" y="37.54" width="158.67" height="279.81" rx="13.24" ry="13.24" transform="translate(419.91 -65.03) rotate(90)" style="fill:#f5f5f5"></rect><rect x="101.94" y="116.28" width="281.06" height="1" style="fill:#fff"></rect><rect x="101.94" y="140.54" width="281.06" height="1" style="fill:#fff"></rect><rect x="101.94" y="164.81" width="281.06" height="1" style="fill:#fff"></rect><rect x="101.94" y="189.08" width="281.06" height="1" style="fill:#fff"></rect><rect x="101.94" y="213.34" width="281.06" height="1" style="fill:#fff"></rect><rect x="101.94" y="237.61" width="281.06" height="1" style="fill:#fff"></rect><polygon points="94.88 226.95 94.25 226.16 126.07 200.85 154.17 215.69 172.37 186.36 198.48 198.31 208.82 164.52 235.21 199.9 266.06 152.47 266.9 153.01 235.26 201.65 209.2 166.7 199.1 199.69 172.76 187.64 154.52 217.01 126.18 202.04 94.88 226.95" style="fill:#E91601"></polygon><path d="M129.07,201.44a2.95,2.95,0,1,1-2.95-2.94A2.95,2.95,0,0,1,129.07,201.44Z" style="fill:#fff"></path><path d="M126.12,204.89a3.45,3.45,0,1,1,3.45-3.45A3.45,3.45,0,0,1,126.12,204.89Zm0-5.89a2.45,2.45,0,1,0,2.45,2.44A2.44,2.44,0,0,0,126.12,199Z" style="fill:#E91601"></path><path d="M175.51,187a2.95,2.95,0,1,1-2.94-2.94A2.94,2.94,0,0,1,175.51,187Z" style="fill:#fff"></path><path d="M172.57,190.44A3.44,3.44,0,1,1,176,187,3.45,3.45,0,0,1,172.57,190.44Zm0-5.88A2.44,2.44,0,1,0,175,187,2.45,2.45,0,0,0,172.57,184.56Z" style="fill:#E91601"></path><path d="M201.73,199a2.95,2.95,0,1,1-2.94-2.94A2.93,2.93,0,0,1,201.73,199Z" style="fill:#fff"></path><path d="M198.79,202.44a3.44,3.44,0,1,1,3.44-3.44A3.45,3.45,0,0,1,198.79,202.44Zm0-5.88a2.44,2.44,0,1,0,2.44,2.44A2.45,2.45,0,0,0,198.79,196.56Z" style="fill:#E91601"></path><path d="M212,165.61a2.95,2.95,0,1,1-3-2.94A2.95,2.95,0,0,1,212,165.61Z" style="fill:#fff"></path><path d="M209,169.06a3.45,3.45,0,1,1,3.45-3.45A3.45,3.45,0,0,1,209,169.06Zm0-5.89a2.45,2.45,0,1,0,2.45,2.44A2.44,2.44,0,0,0,209,163.17Z" style="fill:#E91601"></path><path d="M238.18,200.78a2.95,2.95,0,1,1-3-2.95A2.95,2.95,0,0,1,238.18,200.78Z" style="fill:#fff"></path><path d="M235.23,204.22a3.45,3.45,0,1,1,3.45-3.44A3.44,3.44,0,0,1,235.23,204.22Zm0-5.89a2.45,2.45,0,1,0,2.45,2.45A2.45,2.45,0,0,0,235.23,198.33Z" style="fill:#E91601"></path><circle cx="266.48" cy="152.74" r="11.28" transform="translate(-29.96 233.17) rotate(-45)" style="fill:#fff"></circle><path d="M266.48,164.52a11.78,11.78,0,1,1,11.78-11.78A11.79,11.79,0,0,1,266.48,164.52Zm0-22.56a10.78,10.78,0,1,0,10.78,10.78A10.79,10.79,0,0,0,266.48,142Z" style="fill:#E91601"></path><path d="M273.21,152.74a6.73,6.73,0,1,1-6.73-6.73A6.73,6.73,0,0,1,273.21,152.74Z" style="fill:#E91601"></path><path d="M157.29,216.35a2.95,2.95,0,1,1-2.95-2.94A2.95,2.95,0,0,1,157.29,216.35Z" style="fill:#fff"></path><path d="M154.34,219.8a3.45,3.45,0,1,1,3.45-3.45A3.45,3.45,0,0,1,154.34,219.8Zm0-5.89a2.45,2.45,0,1,0,2.45,2.44A2.44,2.44,0,0,0,154.34,213.91Z" style="fill:#E91601"></path></g><g id="freepik--Character--inject-2"><circle cx="346.04" cy="132.46" r="6.65" style="fill:#263238"></circle><circle cx="342.5" cy="140.19" r="6.65" style="fill:#263238"></circle><path d="M354.77,138.48a4.94,4.94,0,1,1-4.94-4.94A4.95,4.95,0,0,1,354.77,138.48Z" style="fill:#263238"></path><path d="M352.39,144.22a4.95,4.95,0,1,1-4.94-4.94A4.95,4.95,0,0,1,352.39,144.22Z" style="fill:#263238"></path><path d="M346.37,147.8a4.94,4.94,0,1,1-4.94-5A4.94,4.94,0,0,1,346.37,147.8Z" style="fill:#263238"></path><circle cx="335.85" cy="144.79" r="6.65" style="fill:#263238"></circle><path d="M320.85,165.44c-1.11,2.68-2.31,5.05-3.6,7.51s-2.72,4.79-4.24,7.12a66.74,66.74,0,0,1-5,6.77,44.91,44.91,0,0,1-6.11,6.15l-.44.35-.22.17-.3.24a6.23,6.23,0,0,1-2.2,1,7.94,7.94,0,0,1-3.63,0,17.3,17.3,0,0,1-4.69-1.87,48.31,48.31,0,0,1-7-5A105.4,105.4,0,0,1,272,176.49l3-3c2,1.62,4.08,3.27,6.16,4.84s4.16,3.12,6.29,4.53a46.72,46.72,0,0,0,6.35,3.72,9.85,9.85,0,0,0,2.75.9c.31,0,.51,0,.31,0a1.24,1.24,0,0,0-.42.18l.56-.51a57.18,57.18,0,0,0,9-11.59c1.34-2.14,2.56-4.38,3.77-6.63s2.34-4.61,3.34-6.79Z" style="fill:#b55b52"></path><path d="M323.94,164.27c-1.14,2.27-2.25,4.28-3.44,6.37s-2.4,4.1-3.68,6.12a106,106,0,0,1-8.5,11.79,53.7,53.7,0,0,1-5.3,5.52l-.8.69c-.26.21-.53.42-.81.61s-.61.37-.92.53a8.76,8.76,0,0,1-4.05.95,11.93,11.93,0,0,1-5.61-1.59,25.92,25.92,0,0,1-3.5-2.34c-1-.8-1.95-1.6-2.84-2.38-1.77-1.56-3.42-3.1-5-4.37l4.89-7c2.16,1.37,4,2.77,5.86,4,.91.64,1.8,1.23,2.65,1.75a16.86,16.86,0,0,0,2.37,1.22c.67.28,1.22.26.95.17a1.33,1.33,0,0,0-.75.12.61.61,0,0,0-.18.09.37.37,0,0,0-.14.07l.47-.47a43.19,43.19,0,0,0,3.92-4.63,96.9,96.9,0,0,0,6.9-10.93c1.05-1.92,2.07-3.88,3-5.85s1.94-4,2.74-5.9Z" style="fill:#E91601"></path><path d="M269.76,171.2l-5-1.95a1.69,1.69,0,0,0-2.07.9l-1.95,4.28a1.68,1.68,0,0,0,.59,2.09l1.71,1.15a5.63,5.63,0,0,0,3.8.92l7.36-.87,3.22-1.83C276.86,172.2,269.76,171.2,269.76,171.2Z" style="fill:#b55b52"></path><path d="M314.5,414.47a12.06,12.06,0,0,1,3.56-1.83h0s6.31-3.63,9.3-14.54l6.7-1.69a4.83,4.83,0,0,1,2.62,2.78,26.23,26.23,0,0,1,.11,3.54c.06,3.69-.08,12-.08,12h-.87a63.31,63.31,0,0,0-.7-7.52c-.51-2.43-2.13.44-3,3.19s-4.64,5.68-10.26,5.82C315.31,416.36,312.64,416.07,314.5,414.47Z" style="fill:#263238"></path><path d="M327.36,398.1c-3,10.91-9.3,14.54-9.3,14.54a9.06,9.06,0,0,0,7.79-.19c3.08-1.51,3.32-5.91,4.62-7a13,13,0,0,0,3.58-5.63C334.37,398.11,327.36,398.1,327.36,398.1Z" style="fill:#b55b52"></path><path d="M367,414.8a12,12,0,0,1,2-3.47h0s3.36-6.46,0-17.26l4.73-5a4.87,4.87,0,0,1,3.7.93,27.05,27.05,0,0,1,2,2.92c2,3.08,6.39,10.14,6.39,10.14l-.73.46a63.32,63.32,0,0,0-4.65-6c-1.74-1.77-1.55,1.53-.8,4.31s-.85,7.29-5.5,10.43C368.75,415.94,366.34,417.15,367,414.8Z" style="fill:#263238"></path><path d="M369,394.07c3.37,10.8,0,17.26,0,17.26a9,9,0,0,0,6.46-4.36c1.78-2.93-.39-6.77.11-8.38a12.89,12.89,0,0,0,0-6.67C375,390.3,369,394.07,369,394.07Z" style="fill:#b55b52"></path><path d="M317,211.09s5.27,67.54,6.75,94.9c1.53,28.45,3.33,93.17,3.33,93.17l7,.67s10.49-54.17,5.81-93.84c4.14-30.47,5.51-94.9,5.51-94.9Z" style="fill:#b55b52"></path><path d="M345.38,211.09H317s1.86,23.7,3.67,48.72c1.11,15.23,2.21,30.94,2.86,42.07l17.31,38.71a223.3,223.3,0,0,0-1-34.6c1.64-12,2.84-29.38,3.7-45.94C344.88,234.67,345.38,211.09,345.38,211.09Z" style="opacity:0.2"></path><path d="M325.36,211.09s4.75,85,9.56,100.87C340.23,329.51,369,392,369,394.07l6.67-1.86s-10.93-61.38-25.13-84.82c7.92-31.43,1.69-96.3,1.69-96.3Z" style="fill:#b55b52"></path><path d="M311.64,163c-.14,6.5.26,24.88,4.83,53h38.08c-.56-13.62-2.17-26.65,3.05-52.25a7,7,0,0,0-6-8.4c-2.16-.27-4.63-.52-7.2-.64a115.45,115.45,0,0,0-16.54,0c-3.56.32-7.36.9-10.27,1.39A7.17,7.17,0,0,0,311.64,163Z" style="fill:#fff"></path><path d="M340.86,136.65c-1,5.33-2.08,15.08,1.64,18.63,0,0-1.07,7.62-11.79,10.33-6.46-3.37-4.75-10.33-4.75-10.33,5.94-1.42,5.78-5.82,4.75-10Z" style="fill:#b55b52"></path><path d="M336.72,140.19l-6,5.13a16.93,16.93,0,0,1,.51,2.94c2.27-.33,5.39-2.82,5.63-5.2A7.77,7.77,0,0,0,336.72,140.19Z" style="opacity:0.2"></path><path d="M346.48,126.89c-2.07,8.66-2.77,12.36-7.85,16.1-7.65,5.61-17.52,1.21-18-7.89-.43-8.18,3-21,12-23S348.55,118.23,346.48,126.89Z" style="fill:#b55b52"></path><path d="M336.69,115.87c1.55,2.95,6.35,8,7.81,14.47,7-2.17,9.82-15.87.27-19.51C334.57,114.84,336.69,115.87,336.69,115.87Z" style="fill:#263238"></path><path d="M333.32,127c-.12.72-.6,1.23-1.07,1.14s-.74-.72-.61-1.43.6-1.23,1.07-1.15S333.45,126.27,333.32,127Z" style="fill:#263238"></path><path d="M324.72,125.42c-.13.72-.61,1.23-1.07,1.14s-.74-.72-.62-1.44.61-1.22,1.08-1.14S324.85,124.71,324.72,125.42Z" style="fill:#263238"></path><path d="M324.3,124.06l-1.62-.8S323.32,124.75,324.3,124.06Z" style="fill:#263238"></path><path d="M327.18,127.16a19.48,19.48,0,0,1-3.34,4.1,3.1,3.1,0,0,0,2.45.92Z" style="fill:#a02724"></path><path d="M329.3,135.77a7.67,7.67,0,0,1-1.22-.11.21.21,0,0,1,.08-.42,5.71,5.71,0,0,0,5-1.39.21.21,0,0,1,.31.29A6,6,0,0,1,329.3,135.77Z" style="fill:#263238"></path><path d="M347.69,131.82a6.56,6.56,0,0,1-3.52,3.51c-2.12.85-3.43-1-3.05-3.11.34-1.92,1.85-4.67,4.08-4.61A2.92,2.92,0,0,1,347.69,131.82Z" style="fill:#b55b52"></path><path d="M336.23,123.5a.47.47,0,0,1-.3-.16,3.41,3.41,0,0,0-2.75-1.36.42.42,0,0,1-.46-.38.42.42,0,0,1,.38-.46,4.21,4.21,0,0,1,3.5,1.67.44.44,0,0,1-.07.6A.43.43,0,0,1,336.23,123.5Z" style="fill:#263238"></path><path d="M322.88,120.87a.43.43,0,0,1-.23-.21.42.42,0,0,1,.19-.57,4.21,4.21,0,0,1,3.88,0,.42.42,0,1,1-.43.73,3.38,3.38,0,0,0-3.07,0A.41.41,0,0,1,322.88,120.87Z" style="fill:#263238"></path><path d="M332.91,125.62l-1.63-.8S331.93,126.32,332.91,125.62Z" style="fill:#263238"></path><path d="M316.47,215.94,318,291.51,357.3,288c6.75-27.25,10.49-49.21-2.75-72.08Z" style="fill:#263238"></path><polygon points="335.08 274.13 340.35 248.44 332.84 234.4 335.08 274.13" style="opacity:0.2"></polygon><path d="M329.22,153.81c-3.26,2.88-7.38,10.27-8.1,19-.62,7.56,2,44.14,3.68,50.47-6.09-.42-10.28-5.52-10.28-5.52s-4.48-39.24-4.35-48.39,1.48-12.72,7.45-13.87S329.22,153.81,329.22,153.81Z" style="fill:#E91601"></path><path d="M341.43,153.88c3.94,6.13,2.49,12.17,1.58,19.69-1.95,16-.51,42.78,2.19,49.75,6.09-.42,11.8-5,11.8-5s-1-26.2,1.88-49.39c1.12-9.08-.74-13.14-6.71-14.29A44,44,0,0,0,341.43,153.88Z" style="fill:#E91601"></path><rect x="347.6" y="189.94" width="26.46" height="38.29" rx="0.8" ry="0.8" transform="translate(27.29 459.42) rotate(-66.98)" style="fill:#263238"></rect><rect x="347.46" y="190.94" width="26.35" height="37.22" rx="0.79" ry="0.79" transform="translate(26.75 459.52) rotate(-66.98)" style="fill:#fafafa"></rect><rect x="350.6" y="191.22" width="26.46" height="38.29" rx="0.8" ry="0.8" transform="translate(27.94 462.96) rotate(-66.98)" style="fill:#E91601"></rect><rect x="350.6" y="191.22" width="26.46" height="38.29" rx="0.8" ry="0.8" transform="translate(27.94 462.96) rotate(-66.98)" style="fill:#fff;opacity:0.6000000000000001"></rect><path d="M356.4,159.53c2.3,1.72,4.29,3.46,6.33,5.29s3.93,3.78,5.8,5.79a70.32,70.32,0,0,1,5.3,6.4,46.84,46.84,0,0,1,4.45,7.31l.46,1,.12.25.18.47a6.78,6.78,0,0,1,.28,1,9.66,9.66,0,0,1,.12,3.17,19.93,19.93,0,0,1-1.25,4.64,49.34,49.34,0,0,1-3.81,7.51,101.59,101.59,0,0,1-9.51,13l-3.39-2.45c1.27-2.22,2.56-4.5,3.78-6.77s2.4-4.55,3.46-6.85a50.36,50.36,0,0,0,2.71-6.8,12.88,12.88,0,0,0,.58-3,2.12,2.12,0,0,0-.07-.76s0,0,0,0,0,.05,0,0l-.1-.19-.4-.76a58.59,58.59,0,0,0-9-11.48c-1.73-1.81-3.58-3.52-5.45-5.22s-3.85-3.37-5.7-4.86Z" style="fill:#b55b52"></path><path d="M355.91,156.14c1,.82,1.83,1.55,2.73,2.34s1.73,1.56,2.58,2.35c1.7,1.59,3.37,3.21,5,4.89a94.49,94.49,0,0,1,9.2,10.85,48.76,48.76,0,0,1,3.92,6.4c.31.57.57,1.18.85,1.78l.12.26.22.57a9.93,9.93,0,0,1,.3,1.09,9.65,9.65,0,0,1,.18,1.83,15.06,15.06,0,0,1-1,4.89,49.31,49.31,0,0,1-3.17,6.7c-1.11,2-2.25,3.95-3.31,5.85l-7.67-3.7c.86-2.11,1.74-4.15,2.52-6.15a38.63,38.63,0,0,0,1.87-5.64,4,4,0,0,0,.14-1.67s0,.05,0,.18a1.25,1.25,0,0,0,.06.29,1,1,0,0,0,.07.18s0-.08-.07-.11c-.22-.4-.41-.8-.66-1.2a39.7,39.7,0,0,0-3.38-4.76,83.48,83.48,0,0,0-8.64-9c-1.56-1.43-3.18-2.81-4.82-4.16-.82-.67-1.65-1.34-2.48-2s-1.71-1.31-2.46-1.85Z" style="fill:#E91601"></path><path d="M366,212.38l-3.65-.62-6.95,3.74a4.78,4.78,0,0,0-2.21,2.52l-.84,2.21a1.68,1.68,0,0,0,.72,2.05l4.07,2.37a1.69,1.69,0,0,0,2.21-.47l2.95-4.47S366.77,216,366,212.38Z" style="fill:#b55b52"></path><path d="M339.15,115.93c-7.42,2.15-18.47-1.63-18.55,18.33-2.74-4.71-3.33-14.47,0-21.35,3.24-6.69,19.63-8.68,23.55-3.13S339.15,115.93,339.15,115.93Z" style="fill:#263238"></path></g></svg>