<svg xmlns="http://www.w3.org/2000/svg" viewBox="0 0 750 500"><g id="freepik--background-simple--inject-160"><path d="M634.14,140.71l-2.29-5.57c-19.29-46.9-62.5-80.3-113-85.29a134.17,134.17,0,0,0-19.54-.51c-47,2.23-92,29.74-115.45,70.52-13.78,24-21.25,53-42.82,70.28-28.08,22.53-68.62,16.8-104,9.94s-75.92-12.48-103.9,10.17c-17.52,14.19-26.07,37-28.48,59.44-6.38,59.35,26.6,118.7,75.16,153.42s110.35,47.15,170,45c83.57-3,167.74-34.73,225.11-95.58S659.19,220.49,634.14,140.71Z" style="fill:#ebebeb"></path></g><g id="freepik--character-3--inject-160"><path d="M482.94,240s15.72,70.75,16.55,76.84-4.68,27.71-3.81,31.95c1.1,5.33,3.81,7.45,5.39,7.91,11.55,3.31,98-21.5,98-21.5L584.17,242.1l-9.12-11.49-.83-13.28-18.81-24.06-39.84-10-6.36,14.94L491,220.1Z" style="fill:#455a64"></path><path d="M518.92,185.12C519.21,186,568.3,231,568.3,231l-7.2-19.12-3.4-9-.18-17.19-39.2-14.09Z" style="fill:#ffbe9d"></path><polygon points="603.48 332.55 642.65 320.69 626.08 313.38 603.48 328.73 603.48 332.55" style="fill:#ffbe9d"></polygon><path d="M657.53,290.82l-2.1,9.27s1.81,6.92,1.21,7.86-2.89,1-2.89,1,2.44,5.18,0,6.51a19.71,19.71,0,0,1-4.22,1.78s-3.56,3.11-6.89,3.78-17.33-6.67-17.33-6.67l21-14.58,2.56-.31,1.78-2.87Z" style="fill:#ffbe9d"></path><path d="M647,314.57a15.93,15.93,0,0,0-2.08-3.76,12.54,12.54,0,0,0-3.46-3.06,6.16,6.16,0,0,1-1.16-.82,2.07,2.07,0,0,1-.71-1.41,2.64,2.64,0,0,1,2-2.42,10.35,10.35,0,0,1,5.86-.05,9.91,9.91,0,0,1,4.17,2.35,9.29,9.29,0,0,1,1.89,2.61,3.91,3.91,0,0,1,.41,1.1,6.81,6.81,0,0,1-.59-1,10.16,10.16,0,0,0-2-2.44,9.8,9.8,0,0,0-4-2.15,10,10,0,0,0-5.55.07,2.75,2.75,0,0,0-1.16.75,1.76,1.76,0,0,0-.46,1.16c0,.85.88,1.39,1.61,1.84a12.48,12.48,0,0,1,3.51,3.24,11.07,11.07,0,0,1,1.51,2.84A3.6,3.6,0,0,1,647,314.57Z" style="fill:#eb996e"></path><path d="M639.74,318.9s.08-.41.12-1.13a5.82,5.82,0,0,0-.62-3,5.34,5.34,0,0,0-1.26-1.65c-.54-.52-1.32-.8-2.06-1.4a2.24,2.24,0,0,1-.78-1.25,2.6,2.6,0,0,1,.13-1.53,3.7,3.7,0,0,1,2.32-2,5.33,5.33,0,0,1,3.06-.07,7.34,7.34,0,0,1,2.54,1.24,10,10,0,0,1,2.89,3.74,21,21,0,0,1,1.14,2.95,5.18,5.18,0,0,1,.29,1.12c-.1,0-.58-1.56-1.75-3.91a10.14,10.14,0,0,0-2.85-3.51,5.86,5.86,0,0,0-5.16-1.07,3.21,3.21,0,0,0-2,1.73,1.93,1.93,0,0,0,.49,2.23c.62.52,1.45.86,2,1.44a5.55,5.55,0,0,1,1.3,1.81,5.72,5.72,0,0,1,.5,3.15,4,4,0,0,1-.2.84C639.8,318.82,639.75,318.91,639.74,318.9Z" style="fill:#eb996e"></path><path d="M544.77,339.35a2.7,2.7,0,0,1-.52-.68,12.22,12.22,0,0,1-1-2.06A13.73,13.73,0,0,1,546,322.33a11.88,11.88,0,0,1,1.72-1.53,2.72,2.72,0,0,1,.73-.44c.06.08-.94.76-2.17,2.22a14.24,14.24,0,0,0-2.7,13.9C544.18,338.29,544.85,339.3,544.77,339.35Z" style="fill:#eb996e"></path><path d="M506.6,105.79c-8.32-3.81-18.73-.31-24.73,6.6s-8.16,16.47-8.06,25.62,2.26,18.14,3.89,27.14a22.74,22.74,0,0,1,.4,8.45c-.56,2.79-2.35,5.49-5.05,6.36a12,12,0,0,0,7.23,2.59c-3.11.17-4.76,4.41-3.19,7.1s5.15,3.63,8.19,3,5.66-2.52,8.12-4.43,4.93-3.92,7.88-4.9c3.73-1.24,8.3-.9,11-3.79,1.81-2,2.13-4.95,1.55-7.55a32.56,32.56,0,0,0-3.12-7.36,71.82,71.82,0,0,1-2.62-57.46" style="fill:#263238"></path><path d="M480.6,192.38s0-.06.17-.17l.55-.45c.24-.2.53-.45.86-.76s.72-.66,1.13-1.09a21.22,21.22,0,0,0,5-8.49,27.59,27.59,0,0,0,1.12-6.76,46,46,0,0,0-.46-7.88c-.75-5.54-2.47-11.45-4-17.73S482.4,136.6,482.83,131a28.94,28.94,0,0,1,1.58-7.82A25.2,25.2,0,0,1,487.7,117a18.94,18.94,0,0,1,7.72-6.33,9.52,9.52,0,0,1,1.48-.55,5.92,5.92,0,0,1,1.12-.3l.7-.14a.71.71,0,0,1,.24,0,24.74,24.74,0,0,0-3.46,1.2,19.17,19.17,0,0,0-7.5,6.36,24.91,24.91,0,0,0-3.18,6.06A29.37,29.37,0,0,0,483.3,131c-.39,5.56.64,11.68,2.17,17.93s3.26,12.2,4,17.78a44.79,44.79,0,0,1,.42,8,27.69,27.69,0,0,1-1.2,6.85,20.75,20.75,0,0,1-5.23,8.52A17.12,17.12,0,0,1,480.6,192.38Z" style="fill:#455a64"></path><path d="M489.37,191.4a7.8,7.8,0,0,1,.51-.72c.17-.24.41-.51.64-.87l.79-1.23a25.81,25.81,0,0,0,3.17-8.68,42.25,42.25,0,0,0,0-13.73c-.76-5.15-2.39-10.66-4-16.47s-2.8-11.49-2.84-16.76a32.55,32.55,0,0,1,2.7-13.59,21,21,0,0,1,5.55-7.5l1.17-.9c.35-.25.67-.41.91-.57a4.61,4.61,0,0,1,.78-.43,7.25,7.25,0,0,1-.72.52c-.23.17-.54.35-.88.61l-1.13.92a21.54,21.54,0,0,0-5.35,7.5,32.62,32.62,0,0,0-2.55,13.43c.07,5.2,1.31,10.83,2.86,16.63s3.19,11.34,3.93,16.54a42,42,0,0,1-.12,13.87,25.08,25.08,0,0,1-3.36,8.72l-.83,1.21c-.25.35-.5.61-.68.84A4.7,4.7,0,0,1,489.37,191.4Z" style="fill:#455a64"></path><path d="M509.85,108.2a1.72,1.72,0,0,0,.81-2.37,2.63,2.63,0,0,0-2.4-1.25,5.91,5.91,0,0,0-2.68.88c-4.31,2.41-7.33,6.64-9.51,11.08-1.24,2.54-2.28,5.36-1.83,8.15s2.9,5.43,5.72,5.18a5.9,5.9,0,0,0,4.06-2.56,16.15,16.15,0,0,0,2-4.49A152.52,152.52,0,0,0,510.57,106" style="fill:#E91601"></path><path d="M517.32,170.47a25.85,25.85,0,0,1-11.61-11.35,46,46,0,0,1-4.79-15.72c-1.44-10.17-.72-21,4-30.06A36.64,36.64,0,0,1,556,98.74" style="fill:#263238"></path><path d="M574,125.54a24,24,0,0,0-5.4-21.35c-3.85-4.28-9.17-7-14.7-8.65-7.41-2.18-15.61-2.41-22.71.63s-12.87,9.72-13.61,17.41c-.33,3.49.32,7.13-.78,10.46-.48,1.45-1.29,2.94-.87,4.41a3.66,3.66,0,0,0,3.16,2.37,8.21,8.21,0,0,0,4-.84c4.36-1.89,8-5.15,11.49-8.34" style="fill:#263238"></path><path d="M557.42,206.2A53.45,53.45,0,0,0,557.5,195c0-6.6,0-9.3,0-9.24s13.89-2.41,16.64-20.57c1.37-9,.82-23.83,0-35.92-.76-10.88-8.07-24.18-18.9-23l-33.81,8.8a6.38,6.38,0,0,0-5.67,6.51l3.17,63.51Z" style="fill:#ffbe9d"></path><path d="M568.72,140.82a2.34,2.34,0,0,1-2.23,2.37,2.25,2.25,0,0,1-2.42-2.08,2.34,2.34,0,0,1,2.23-2.37A2.23,2.23,0,0,1,568.72,140.82Z" style="fill:#263238"></path><path d="M571,137c-.29.31-2.06-1-4.57-1s-4.33,1.29-4.6,1c-.14-.13.15-.68,1-1.27a6.37,6.37,0,0,1,3.68-1.16,6.19,6.19,0,0,1,3.64,1.14C570.85,136.3,571.12,136.85,571,137Z" style="fill:#263238"></path><path d="M544.21,141.71a2.34,2.34,0,0,1-2.23,2.37,2.23,2.23,0,0,1-2.41-2.08,2.34,2.34,0,0,1,2.22-2.37A2.23,2.23,0,0,1,544.21,141.71Z" style="fill:#263238"></path><path d="M546.36,137.62c-.28.31-2.06-1-4.56-1s-4.33,1.29-4.6,1c-.14-.13.15-.68.95-1.27a6.3,6.3,0,0,1,3.68-1.16,6.12,6.12,0,0,1,3.64,1.14C546.24,136.94,546.5,137.48,546.36,137.62Z" style="fill:#263238"></path><path d="M555.58,156.13c0-.14,1.54-.42,4.06-.76.64-.07,1.25-.21,1.35-.64a3.18,3.18,0,0,0-.44-1.89L558.63,148c-2.68-6.91-4.62-12.6-4.34-12.71s2.68,5.42,5.35,12.33c.64,1.71,1.26,3.33,1.84,4.89a3.66,3.66,0,0,1,.35,2.5,1.6,1.6,0,0,1-1,.95,4.64,4.64,0,0,1-1.09.15C557.17,156.25,555.59,156.27,555.58,156.13Z" style="fill:#263238"></path><path d="M557.52,185.75a46.22,46.22,0,0,1-24.35-6.31s6.2,12.52,24.35,10.69Z" style="fill:#eb996e"></path><path d="M554.56,162.17a4.51,4.51,0,0,0-4-1.65,4.16,4.16,0,0,0-2.84,1.55,2.62,2.62,0,0,0-.17,3,3,3,0,0,0,3.29.8,9.5,9.5,0,0,0,3.18-1.93,2.66,2.66,0,0,0,.71-.75.83.83,0,0,0,0-.93" style="fill:#eb996e"></path><path d="M548.22,157.91c.41,0,.44,2.69,2.78,4.61s5.23,1.59,5.25,2c0,.17-.64.53-1.86.57a6.77,6.77,0,0,1-4.39-1.49,5.88,5.88,0,0,1-2.15-3.86C547.74,158.57,548,157.9,548.22,157.91Z" style="fill:#263238"></path><path d="M546.73,130.05c-.24.68-2.74.37-5.68.75s-5.31,1.19-5.7.58c-.18-.29.23-.93,1.19-1.6a9.55,9.55,0,0,1,4.21-1.51,9.73,9.73,0,0,1,4.46.49C546.29,129.19,546.83,129.72,546.73,130.05Z" style="fill:#263238"></path><path d="M570.17,126c-.43.57-2.16,0-4.24,0s-3.83.41-4.23-.19c-.18-.28.09-.86.85-1.4a6.13,6.13,0,0,1,6.83.16C570.12,125.17,570.36,125.76,570.17,126Z" style="fill:#263238"></path><path d="M521.1,152c0-1.35-1.59-4.52-2.93-4.72-3.57-.53-10-.2-10,8.85,0,12.37,12.42,9.82,12.44,9.46S521.15,156.64,521.1,152Z" style="fill:#ffbe9d"></path><path d="M516.85,160.87c-.05,0-.21.16-.58.32a2.12,2.12,0,0,1-1.61,0c-1.31-.48-2.41-2.56-2.47-4.79a7.24,7.24,0,0,1,.6-3.08,2.52,2.52,0,0,1,1.62-1.66,1.1,1.1,0,0,1,1.28.59c.16.35.08.59.15.62s.27-.21.17-.72a1.44,1.44,0,0,0-.49-.78,1.64,1.64,0,0,0-1.19-.31,3,3,0,0,0-2.25,1.92,7.27,7.27,0,0,0-.75,3.45c.08,2.49,1.36,4.82,3.15,5.34a2.34,2.34,0,0,0,2-.33C516.83,161.17,516.89,160.9,516.85,160.87Z" style="fill:#aa6550"></path><path d="M556.92,104.15a16.91,16.91,0,0,1-11.13,13.22c-3.07,1-6.79,1.38-8.57,4.09s-.6,6.7-2.28,9.55c-2.32,3.94-9,3.93-10.67,8.18-.74,1.86-.27,4-1,5.88-1,2.46-4.19,3.56-6.75,2.82a9.13,9.13,0,0,1-5.54-5.4,24.91,24.91,0,0,1-1.53-7.81c-.4-5.23-.57-10.59.89-15.63,3.06-10.56,17.87-25.43,28.85-25" style="fill:#263238"></path><path d="M536.36,99.39c0,.29,5.22,0,10.78,2.83s8.55,7.12,8.77,6.91a8.48,8.48,0,0,0-1.89-2.78,21.64,21.64,0,0,0-6.48-4.93,21.37,21.37,0,0,0-7.82-2.2A8.42,8.42,0,0,0,536.36,99.39Z" style="fill:#455a64"></path><path d="M550.15,98.49c-.13.23,2.58,1.46,4.4,4.44s1.8,5.92,2.07,5.9c.11,0,.29-.72.2-1.93A10.21,10.21,0,0,0,552,99.15C550.93,98.54,550.19,98.39,550.15,98.49Z" style="fill:#455a64"></path><path d="M506.06,159.76a2.83,2.83,0,0,1-.32-.47l-.84-1.39c-.17-.3-.39-.63-.58-1l-.59-1.26c-.22-.46-.44-.94-.68-1.46s-.41-1.1-.62-1.69a44.56,44.56,0,0,1-2.16-8.59,54.44,54.44,0,0,1,1.16-21.56,45.52,45.52,0,0,1,1.42-4.52c.27-.69.47-1.38.76-2s.56-1.22.82-1.8a30.76,30.76,0,0,1,1.58-3c.25-.43.47-.84.69-1.21l.67-1,.93-1.32c.22-.3.34-.45.36-.44a2.88,2.88,0,0,1-.27.5c-.23.36-.51.82-.85,1.37l-.62,1c-.22.37-.42.79-.66,1.23a32.81,32.81,0,0,0-1.49,3c-.25.58-.51,1.18-.79,1.81s-.47,1.31-.72,2c-.53,1.37-.93,2.9-1.37,4.49a56.49,56.49,0,0,0-1.6,10.63,57.37,57.37,0,0,0,.45,10.74,47.07,47.07,0,0,0,2,8.54c.2.59.39,1.15.58,1.69l.63,1.46c.2.45.38.88.55,1.27s.38.72.54,1l.75,1.43A1.87,1.87,0,0,1,506.06,159.76Z" style="fill:#455a64"></path><path d="M484.89,276.45s.09.22.25.65l.66,1.94,2.47,7.35L497,312.73l-.32-.12A74,74,0,0,1,514.15,305c1.65-.43,3.33-.89,5.05-1.25s3.47-.71,5.26-.91a70.87,70.87,0,0,1,11-.73,58.12,58.12,0,0,1,9.48.8l-.31.31-5.23-23.1c-.2-.9-.38-1.79-.62-2.64s-.52-1.69-.8-2.52c-.57-1.65-1.15-3.26-1.74-4.81-1.16-3.11-2.3-6-3.39-8.73v-.05c-.4-4-.76-7.55-1.07-10.7a35.9,35.9,0,0,0-2-7.83c-.75-2.1-1.46-3.68-1.94-4.75l-.57-1.21a2,2,0,0,1-.18-.42s.09.13.23.39.36.66.62,1.19c.51,1.06,1.25,2.63,2,4.72a35.43,35.43,0,0,1,2.07,7.87c.34,3.15.72,6.73,1.15,10.68v0c1.1,2.71,2.26,5.62,3.44,8.73q.89,2.32,1.76,4.81c.29.83.56,1.68.82,2.54s.43,1.77.64,2.66c1.63,7.15,3.4,14.92,5.27,23.1l.08.38-.39-.07a57.53,57.53,0,0,0-9.38-.79,71.17,71.17,0,0,0-10.91.72c-1.78.2-3.51.57-5.23.9s-3.37.8-5,1.23A74.61,74.61,0,0,0,496.86,313l-.25.14-.08-.26L488,286.47c-1-3.16-1.8-5.66-2.35-7.39q-.37-1.26-.6-1.95C484.94,276.68,484.89,276.45,484.89,276.45Z" style="fill:#263238"></path><polygon points="499.49 369.53 491.57 393.86 484.89 481.05 591.4 481.05 586.46 365.36 510.85 364.85 499.49 369.53" style="fill:#263238"></polygon><path d="M509.21,198.25S551.32,251.93,552,256.5s-1.6,13.2-3.84,17-8.48,10.88-8.48,10.88l-30.43,69.11-9.72,3.75v12.25l9.6-3.84-11.7,115.36H611.82l-8.34-129.12v-25.6s-1.69-47.45-4.37-56-10.67-28.19-10.67-28.19l-18.2-23.3-.84,4.71,14.77,18.59s-2.5,2.31-8.21,4.57c-4.47,1.77-19.2,1.6-19.2,1.6L510.85,194.4Z" style="fill:#E91601"></path><path d="M507.83,199.9S490.45,212,484.74,226.62c-4.16,10.65-10,23.92-6.79,31.78,1.55,3.77,18.79,54.4,18.79,54.4,14.91-9.68,39.35-12,48.14-9.68l-5.67-24.93s-6.63-17.29-6.63-19.79a54.16,54.16,0,0,0-2.5-15.35C527.94,236.26,507.83,199.9,507.83,199.9Z" style="fill:#455a64"></path><path d="M543.81,296.89a2.91,2.91,0,0,1-.51,0l-1.48,0c-1.29-.06-3.15-.09-5.44-.08s-5,.12-8,.37-6.33.7-9.76,1.35-6.66,1.5-9.57,2.37-5.47,1.82-7.59,2.67-3.84,1.6-5,2.14l-1.35.6a1.5,1.5,0,0,1-.49.18,2.9,2.9,0,0,1,.44-.27l1.31-.69c1.14-.6,2.83-1.4,4.95-2.3s4.69-1.86,7.59-2.79a92.19,92.19,0,0,1,9.61-2.42,93.34,93.34,0,0,1,9.82-1.32c3-.23,5.78-.3,8.08-.26s4.17.12,5.45.24l1.47.14A1.63,1.63,0,0,1,543.81,296.89Z" style="fill:#263238"></path><path d="M532,292.33a3.8,3.8,0,0,1-.59-.24l-1.63-.76-1.17-.57c-.42-.22-.87-.48-1.35-.75-1-.56-2.09-1.15-3.24-1.95l-1.83-1.21c-.64-.42-1.26-.93-1.92-1.41-1.34-1-2.66-2.13-4.07-3.33a65.4,65.4,0,0,1-14.65-19c-.8-1.67-1.6-3.24-2.18-4.78-.31-.77-.64-1.5-.89-2.22s-.48-1.41-.7-2.08c-.48-1.31-.76-2.55-1.06-3.62-.14-.54-.29-1-.39-1.5s-.17-.89-.25-1.28q-.19-1.08-.33-1.77a2.66,2.66,0,0,1-.08-.62,2.4,2.4,0,0,1,.18.6c.11.45.25,1,.43,1.75.09.38.18.8.29,1.26s.28.95.43,1.48c.32,1.06.62,2.28,1.13,3.58.23.66.47,1.35.73,2.06s.59,1.43.9,2.19c.6,1.52,1.41,3.08,2.22,4.73a67.19,67.19,0,0,0,14.54,18.84c1.39,1.2,2.69,2.38,4,3.34.66.49,1.26,1,1.89,1.43l1.8,1.23c1.13.82,2.24,1.42,3.18,2,.48.28.91.56,1.33.79l1.15.61,1.58.85A3,3,0,0,1,532,292.33Z" style="fill:#263238"></path><path d="M533.73,264.92a4.89,4.89,0,0,1-1-.74c-.65-.5-1.57-1.25-2.69-2.2-2.23-1.89-5.24-4.61-8.41-7.76s-5.89-6.17-7.79-8.4c-.95-1.12-1.7-2-2.2-2.68a5.63,5.63,0,0,1-.75-1,5.78,5.78,0,0,1,.9.91l2.33,2.56c2,2.17,4.72,5.12,7.88,8.28s6.12,5.89,8.29,7.86l2.57,2.32A7.63,7.63,0,0,1,533.73,264.92Z" style="fill:#263238"></path><path d="M568.3,231s-.07,0-.18-.15l-.49-.47c-.44-.42-1.09-1-2-1.74a20.65,20.65,0,0,0-3.44-2.3,8.87,8.87,0,0,0-2.4-.87,5.64,5.64,0,0,0-1.37-.11l-.7.11a1,1,0,0,0-.52.36,9.34,9.34,0,0,0-1.35,2.82c-.35,1.05-.64,2.17-.92,3.34a47.85,47.85,0,0,0-1.2,7.52,1.62,1.62,0,0,0,0,.23s0,.06,0,.05h0c.3-.19-.34.58-.33.34l0,0-.06,0-.36-.37-.71-.75-1.45-1.53-3-3.16-6.24-6.65-21.82-23.42-6.56-7.15c-.75-.82-1.34-1.48-1.77-2l-.45-.51a1.51,1.51,0,0,1-.14-.19s.07,0,.18.15l.49.48,1.84,1.9,6.68,7L542,227.28l6.24,6.65,3,3.17q.74.77,1.44,1.53l.71.75.35.37,0,0c0,.05,0-.09-.07.07s-.34.26-.28.25l0-.06a.38.38,0,0,1-.05-.2,1.37,1.37,0,0,1,0-.28,29.08,29.08,0,0,1,.5-4c.22-1.26.48-2.49.76-3.66s.59-2.31,1-3.37a9.56,9.56,0,0,1,1.45-2.93,1.38,1.38,0,0,1,.72-.47l.76-.11a5.84,5.84,0,0,1,1.46.14,9.05,9.05,0,0,1,2.47.93,19.77,19.77,0,0,1,3.43,2.4,24.91,24.91,0,0,1,1.92,1.82c.21.22.36.39.46.51S568.31,231,568.3,231Z" style="fill:#263238"></path><path d="M574.82,225.25c-.08,0-.29-1.3-.82-3.35a15.66,15.66,0,0,0-1.25-3.45c-.31-.57-.85-1.21-1.37-.83a4,4,0,0,0-1.11,1.84,41.12,41.12,0,0,0-1.3,8.15c-.18,2.12-.25,3.43-.32,3.43a17.3,17.3,0,0,1,0-3.45,34.37,34.37,0,0,1,1.17-8.29,4.3,4.3,0,0,1,1.35-2.12,1.11,1.11,0,0,1,.7-.17,1.21,1.21,0,0,1,.63.28,3.08,3.08,0,0,1,.72.92,15.23,15.23,0,0,1,1.19,3.6c.22,1.05.35,1.91.42,2.5A2.72,2.72,0,0,1,574.82,225.25Z" style="fill:#263238"></path><g style="opacity:0.30000000000000004"><path d="M515.67,338.85l1.59,1.58c0-.25-.06-.5-.1-.76Z"></path><path d="M557.35,345c-5.8,3.39-11.81,7.26-18.53,7.3-8.44.06-15.46-5.83-21.56-11.85.88,6.93,1.9,14,5.2,20.15,3.42,6.37,9.9,11.63,17.13,11.46,4.46-.11,8.59-2.2,12.66-4,10.53-4.73,21.77-8,31.6-14s18.37-15.75,19.11-27.26A166.26,166.26,0,0,0,557.35,345Z"></path></g><polygon points="580.02 250.22 591.38 245.26 593.22 250.22 582.15 255.03 580.02 250.22" style="fill:#fff"></polygon><path d="M598,393.4a4.67,4.67,0,0,1-.39.6l-1.18,1.68c-.52.73-1.16,1.61-2,2.59s-1.67,2.14-2.75,3.32l-1.66,1.88c-.58.65-1.23,1.29-1.88,2-1.28,1.37-2.76,2.73-4.3,4.18a108.54,108.54,0,0,1-10.77,8.52,106.84,106.84,0,0,1-11.87,6.93c-1.91.91-3.71,1.79-5.46,2.49-.87.35-1.7.73-2.51,1l-2.36.86c-1.49.58-2.88,1-4.09,1.35s-2.26.68-3.13.89l-2,.49a3.3,3.3,0,0,1-.7.14,3.64,3.64,0,0,1,.68-.24l2-.59c.86-.24,1.91-.55,3.1-1s2.58-.82,4-1.42l2.34-.88c.81-.32,1.63-.7,2.49-1.06,1.73-.71,3.52-1.6,5.42-2.52a111.91,111.91,0,0,0,11.78-6.93,110.68,110.68,0,0,0,10.75-8.45c1.54-1.43,3-2.77,4.32-4.13.65-.67,1.3-1.29,1.89-1.93s1.14-1.26,1.68-1.85c1.09-1.16,2-2.3,2.79-3.26s1.5-1.82,2-2.53l1.27-1.62A2.86,2.86,0,0,1,598,393.4Z" style="fill:#263238"></path><g style="opacity:0.30000000000000004"><path d="M550.8,419.44a22.58,22.58,0,0,0-5.84,5.21c-1.52,2.13-2.43,4.56-1.57,7,18.73-5,36.41-17.71,49.66-31.88C579.28,404.55,562.78,411.18,550.8,419.44Z"></path></g><polygon points="569.3 346.14 573.05 351.2 702.91 259.75 699.99 255.03 569.3 346.14" style="fill:#263238"></polygon><path d="M616.37,260.79h0a2.3,2.3,0,0,0,1.86,2.72l47.88,8.24H674l-6.32-3.95L619,259A2.3,2.3,0,0,0,616.37,260.79Z" style="fill:#E91601"></path><path d="M543.23,302.92c.23,1.35,5,17.39,5,17.39l67.24-29.45,19.93-25.94,5-1.73,7.14-6.69s2.52.69,2.64,2.48l4.64-1.65a1.63,1.63,0,0,1,1.41.15l5.48,3.36a1.66,1.66,0,0,1,.77,1.18l.2,1.42a1.66,1.66,0,0,1-1,1.76h0s2.75,2.27,2.87,4.18a12.9,12.9,0,0,1-1.08,4.67l1.31,5.77-6.09,4h0c-.47,1-6.82,4.76-6.82,4.76l-24.43,17s-68.24,48.09-76.72,51.67-9.09,5.13-13.4,4.17-13.51-9.68-15.18-12.79-21.62-38.06-21.51-38.12C520,300.17,542.58,301.53,543.23,302.92Z" style="fill:#ffbe9d"></path><path d="M650.71,258.8c0,.13-2.44,1.1-5.42,2.51-1.5.68-2.88,1.28-3.9,1.64a5,5,0,0,1-1.71.44,7.44,7.44,0,0,1,1.57-.78l3.83-1.78A21.31,21.31,0,0,1,650.71,258.8Z" style="fill:#eb996e"></path><path d="M661.72,265c0,.09-.93-.09-2.42-.06a13.72,13.72,0,0,0-5.58,1.31c-2,1-3.75,2.22-5.17,2.8a5.27,5.27,0,0,1-2.38.62c0-.08.9-.27,2.22-.95s3-1.91,5.1-2.94a12.63,12.63,0,0,1,5.81-1.21A6.34,6.34,0,0,1,661.72,265Z" style="fill:#eb996e"></path><path d="M663.33,274.55a10.16,10.16,0,0,0-1.45-1,5.9,5.9,0,0,0-4-.19,13.32,13.32,0,0,0-3.68,2,6.84,6.84,0,0,1-1.49,1,5.55,5.55,0,0,1,1.26-1.27,11,11,0,0,1,3.76-2.2,5.76,5.76,0,0,1,4.35.36C663.06,273.84,663.37,274.54,663.33,274.55Z" style="fill:#eb996e"></path><path d="M661.35,280.22a21.27,21.27,0,0,1-4.3,1.95,21,21,0,0,1-4.49,1.47,21.27,21.27,0,0,1,4.3-1.95A21.68,21.68,0,0,1,661.35,280.22Z" style="fill:#eb996e"></path><path d="M640.92,279.82c0,.06-.44.18-1.16,0a3.85,3.85,0,0,1-3-4.28c.11-.73.37-1.1.42-1.08s-.05.44-.05,1.1a4,4,0,0,0,2.71,3.91C640.49,279.72,640.92,279.74,640.92,279.82Z" style="fill:#eb996e"></path><path d="M642.78,287.9c0,.06-.37.05-.88-.19a3.84,3.84,0,0,1-1.58-1.47,3.76,3.76,0,0,1-.55-2.09c0-.56.18-.88.24-.86a7.47,7.47,0,0,0,.76,2.68C641.55,287.32,642.83,287.76,642.78,287.9Z" style="fill:#eb996e"></path><path d="M637.21,271.47c0,.13-1.13-.17-1.92-1.26s-.75-2.23-.61-2.22.32,1,1,1.91S637.28,271.33,637.21,271.47Z" style="fill:#eb996e"></path></g><g id="freepik--character-1--inject-160"><polygon points="294.73 346.69 308.15 410.04 310.5 481.05 298.76 479.33 285.87 352.32 294.73 346.69" style="fill:#263238"></polygon><polyline points="173.85 297.51 173.71 301.89 155.39 481.05 308.15 481.05 290.26 343.64 280.61 306.87" style="fill:#E91601"></polyline><g style="opacity:0.30000000000000004"><path d="M289.86,348.42c-19.59,7.4-37.57,18.44-56.33,27.74s-39,17-59.93,16.9c-3.12,0-6.6-1.7-9.22,0l-.84,9c11.29,8.4,26.36,10.31,40.28,8.25s27-7.73,39.89-13.34c8.12-3.52,16.73-7.47,21.37-15,2.67-4.33,3.87-9.65,7.52-13.19s9.2-4.63,13.57-7.4S293.6,352,289.86,348.42Z"></path></g><path d="M198.43,168.5s-33.32,12.6-35.53,15.7-14,58.3-14,58.3L170,246.33l6.21,82.55,105.18,21.3s-2.22-95.71,0-96,8.87-73.07,8.87-73.07l-24.41-13.76-9.31-13.19L208,157.71Z" style="fill:#455a64"></path><polygon points="152.1 243.02 147.69 270.81 119.11 308.11 148.89 320.06 173.25 292.17 171.22 245.84 152.1 243.02" style="fill:#aa6550"></polygon><path d="M189.06,171.85l-20.8,74.47s0,0,0,0h0l8,82.56,105.18,21.3-.78-43.31-1.38-1.63a138.77,138.77,0,0,1-30.39-64L246.35,228l19.5-60.61L262,161.92l-24.6,64.2-54.09-.29,11.51-56.27Z" style="fill:#E91601"></path><path d="M280.6,261.81l46.14-5.76s-7.14-41.85-10.54-50-25.94-24.94-25.94-24.94l-15.86,7.61L270,221.45Z" style="fill:#455a64"></path><rect x="215.75" y="234.6" width="22.36" height="6.59" style="fill:#fafafa"></rect><path d="M174.05,295.19c-.14,0-2.85-22.16-6.05-49.52s-5.68-49.56-5.54-49.58,2.86,22.15,6.06,49.52S174.19,295.17,174.05,295.19Z" style="fill:#263238"></path><path d="M270.46,228a2.24,2.24,0,0,1-.15-.5c-.09-.34-.22-.83-.35-1.48-.28-1.28-.63-3.15-.93-5.48a51.74,51.74,0,0,1,.69-18.31,34.8,34.8,0,0,1,8.55-16.11,26,26,0,0,1,4.25-3.6c.54-.39,1-.62,1.29-.8a2.51,2.51,0,0,1,.47-.24s-.59.43-1.64,1.2a29.59,29.59,0,0,0-4.11,3.69,35.73,35.73,0,0,0-8.3,16,54.26,54.26,0,0,0-.84,18.14c.26,2.33.55,4.2.77,5.5l.25,1.49A1.86,1.86,0,0,1,270.46,228Z" style="fill:#263238"></path><path d="M326.74,256.05a4.35,4.35,0,0,1-.8.15l-2.28.32-8.41,1.09L287.47,261l-8.84,1.05-.22,0-.06-.22c-2-8.56-3.92-16-5.34-21.26-.7-2.6-1.27-4.7-1.67-6.2-.18-.69-.33-1.24-.44-1.67a4.21,4.21,0,0,1-.12-.58,2.07,2.07,0,0,1,.21.56c.13.41.3,1,.52,1.64.44,1.44,1.06,3.53,1.82,6.16,1.51,5.26,3.48,12.68,5.52,21.23l-.28-.19,8.84-1.06,27.79-3.25,8.44-.93,2.29-.22A4.46,4.46,0,0,1,326.74,256.05Z" style="fill:#263238"></path><path d="M221.91,309.65a5.83,5.83,0,0,1-1-1c-.59-.65-1.42-1.63-2.42-2.85-2-2.44-4.65-5.92-7.33-9.93s-4.86-7.79-6.34-10.58c-.75-1.39-1.32-2.53-1.7-3.33a7.31,7.31,0,0,1-.54-1.26,6.61,6.61,0,0,1,.72,1.17l1.84,3.24c1.56,2.74,3.79,6.47,6.46,10.47s5.25,7.5,7.18,10l2.29,3A7.38,7.38,0,0,1,221.91,309.65Z" style="fill:#263238"></path><path d="M218.94,201.07a3.7,3.7,0,0,1-.59-.41l-1.65-1.27-6-4.72c-1.27-1-2.62-2.15-4.15-3.22A8.35,8.35,0,0,0,204,190.2a5.45,5.45,0,0,0-2.94.06,8.3,8.3,0,0,0-4.79,4.13,20.43,20.43,0,0,0-1.88,6.79c0,.38-.1.76-.15,1.11l-.52,0a104.89,104.89,0,0,1,.78-13.47A90,90,0,0,1,196.6,178c.78-3,1.5-5.43,2-7.09.25-.79.45-1.42.6-1.91a3.36,3.36,0,0,1,.25-.65,5.49,5.49,0,0,1-.15.68l-.51,1.93c-.44,1.68-1.11,4.1-1.83,7.13a94.07,94.07,0,0,0-2,10.74,109.91,109.91,0,0,0-.73,13.41l-.52,0c.05-.35.1-.73.16-1.11a20.57,20.57,0,0,1,1.94-7,8.77,8.77,0,0,1,5.1-4.35,5.9,5.9,0,0,1,3.2,0,9.14,9.14,0,0,1,2.69,1.33c1.56,1.12,2.87,2.29,4.13,3.29l5.89,4.86,1.58,1.34A4.26,4.26,0,0,1,218.94,201.07Z" style="fill:#263238"></path><path d="M261.81,161.51a3.52,3.52,0,0,1-.26.73c-.22.51-.5,1.19-.85,2l-3.21,7.46-10.76,24.53-1,2.34-.19.43-.26-.39-7.58-11.11.34.05-12.34,9.85-3.52,2.77-.95.72a1.44,1.44,0,0,1-.34.22s.09-.1.29-.28l.9-.78,3.45-2.87,12.21-10,.2-.16.15.21c2.32,3.38,4.9,7.13,7.61,11.09l-.45,0,1-2.35,10.9-24.46c1.41-3.08,2.55-5.6,3.36-7.39.39-.84.71-1.5.94-2A4.38,4.38,0,0,1,261.81,161.51Z" style="fill:#263238"></path><path d="M215.31,224.08c-.14,0,.27-4.9.91-10.92s1.29-10.88,1.43-10.86-.26,4.9-.91,10.92S215.46,224.1,215.31,224.08Z" style="fill:#263238"></path><path d="M221.62,205.41s0-.22.23-.49a1.82,1.82,0,0,1,1.36-.57,1.55,1.55,0,0,1,1,.37,2.15,2.15,0,0,1,.63,1.05,2.26,2.26,0,0,1-.9,2.51,2.39,2.39,0,0,1-2.68-.17,2.06,2.06,0,0,1-.71-2.07,2.15,2.15,0,0,1,.74-1.26c.28-.21.48-.24.49-.22a2.71,2.71,0,0,0-.87,1.54,1.73,1.73,0,0,0,.64,1.63,2,2,0,0,0,2.11.11,1.89,1.89,0,0,0,.26-2.8,1.27,1.27,0,0,0-.75-.32,1.7,1.7,0,0,0-1.2.35C221.75,205.26,221.66,205.43,221.62,205.41Z" style="fill:#263238"></path><polygon points="77 316.55 133.08 301.89 261.11 327.81 192.07 347.47 165.72 342.81 165.25 361.77 105.15 345.24 104.93 326.02 77 316.55" style="fill:#263238"></polygon><path d="M82.13,331.36c3,6.22,7.35,10.41,12.72,10.62,1.08,0,1.89-.67,2.92-.73a6.52,6.52,0,0,1,1.72.64,2.39,2.39,0,0,0,.89.21c5.55-.3,10.28-4.21,13.47-10.74,4.44-9.14,3.07-19-3.06-21.95a14.64,14.64,0,0,0-2.5-1,9.93,9.93,0,0,0-3.05-.36,23,23,0,0,0-7,1.57l-.3.11c-5-2.19-9-2.21-12.81-.34C79.05,312.39,77.69,322.22,82.13,331.36Z" style="fill:#E91601"></path><g style="opacity:0.30000000000000004"><path d="M82.13,331.36c3,6.22,7.35,10.41,12.72,10.62,1.08,0,1.89-.67,2.92-.73a6.52,6.52,0,0,1,1.72.64,2.39,2.39,0,0,0,.89.21c5.55-.3,10.28-4.21,13.47-10.74,4.44-9.14,3.07-19-3.06-21.95a14.64,14.64,0,0,0-2.5-1,9.93,9.93,0,0,0-3.05-.36,23,23,0,0,0-7,1.57l-.3.11c-5-2.19-9-2.21-12.81-.34C79.05,312.39,77.69,322.22,82.13,331.36Z"></path></g><path d="M82.23,322.1a4.9,4.9,0,0,1-.5-1.84,9.94,9.94,0,0,1,3.1-8.41,4.65,4.65,0,0,1,1.59-1.06c0,.06-.57.45-1.38,1.28a10.77,10.77,0,0,0-3,8.16C82.1,321.38,82.31,322.08,82.23,322.1Z" style="fill:#fafafa"></path><path d="M83.36,326.45c-.11,0-.31-.41-.44-1s-.14-1,0-1.06.31.41.44,1S83.47,326.42,83.36,326.45Z" style="fill:#fafafa"></path><path d="M133.56,301.86a12,12,0,0,0-10.09-13.66,1.18,1.18,0,0,0-.85.1,1.2,1.2,0,0,0-.32,1.15,14.44,14.44,0,0,0,11.24,12.75" style="fill:#455a64"></path><path d="M116.79,323.94c3,6.22,7.36,10.41,12.73,10.61,1.07,0,1.89-.67,2.91-.73a6.67,6.67,0,0,1,1.72.65,2.37,2.37,0,0,0,.9.2c5.55-.3,10.28-4.2,13.47-10.73,4.44-9.15,3.06-19-3.06-22a14.73,14.73,0,0,0-2.51-1,10.56,10.56,0,0,0-3-.36,22.73,22.73,0,0,0-7,1.58l-.3.11c-5-2.2-9-2.21-12.81-.35C113.71,305,112.35,314.79,116.79,323.94Z" style="fill:#E91601"></path><g style="opacity:0.5"><path d="M116.79,323.94c3,6.22,7.36,10.41,12.73,10.61,1.07,0,1.89-.67,2.91-.73a6.67,6.67,0,0,1,1.72.65,2.37,2.37,0,0,0,.9.2c5.55-.3,10.28-4.2,13.47-10.73,4.44-9.15,3.06-19-3.06-22a14.73,14.73,0,0,0-2.51-1,10.56,10.56,0,0,0-3-.36,22.73,22.73,0,0,0-7,1.58l-.3.11c-5-2.2-9-2.21-12.81-.35C113.71,305,112.35,314.79,116.79,323.94Z"></path></g><path d="M116.9,314.67a4.7,4.7,0,0,1-.51-1.84,9.9,9.9,0,0,1,3.11-8.4,4.62,4.62,0,0,1,1.58-1.07c0,.06-.57.46-1.37,1.28a10.82,10.82,0,0,0-2.37,3.77,11,11,0,0,0-.65,4.4C116.77,314,117,314.65,116.9,314.67Z" style="fill:#fafafa"></path><path d="M118,319c-.12,0-.32-.4-.44-1s-.15-1,0-1.06.31.4.44,1S118.14,319,118,319Z" style="fill:#fafafa"></path><path d="M160.16,309.29a12,12,0,0,0-10.08-13.67,1.27,1.27,0,0,0-.86.1c-.34.24-.35.74-.32,1.16a14.46,14.46,0,0,0,11.25,12.75" style="fill:#455a64"></path><path d="M143.4,331.36c3,6.22,7.35,10.41,12.73,10.62,1.07,0,1.88-.67,2.91-.73a6.52,6.52,0,0,1,1.72.64,2.39,2.39,0,0,0,.89.21c5.55-.3,10.28-4.21,13.47-10.74,4.44-9.14,3.07-19-3.06-21.95a14.64,14.64,0,0,0-2.5-1,9.93,9.93,0,0,0-3.05-.36,23.09,23.09,0,0,0-7,1.57l-.3.11c-5-2.19-8.95-2.21-12.81-.34C140.32,312.39,139,322.22,143.4,331.36Z" style="fill:#E91601"></path><path d="M143.51,322.1a4.57,4.57,0,0,1-.51-1.84,9.94,9.94,0,0,1,3.1-8.41,4.65,4.65,0,0,1,1.59-1.06c0,.06-.57.45-1.38,1.28a11.07,11.07,0,0,0-2.37,3.76,10.82,10.82,0,0,0-.64,4.4C143.37,321.38,143.58,322.08,143.51,322.1Z" style="fill:#fafafa"></path><path d="M144.63,326.45c-.11,0-.31-.41-.44-1s-.14-1,0-1.06.32.41.44,1S144.75,326.42,144.63,326.45Z" style="fill:#fafafa"></path><path d="M172.82,294.32c0,.08-1.15.52-2.87,1.55a22.8,22.8,0,0,0-2.87,2.05,24.4,24.4,0,0,0-3,3.06,25,25,0,0,0-2.41,3.58,23.4,23.4,0,0,0-1.43,3.21c-.67,1.9-.87,3.14-1,3.13a3.21,3.21,0,0,1,.09-.88,7.74,7.74,0,0,1,.21-1c.1-.39.19-.84.36-1.32a20.66,20.66,0,0,1,1.38-3.31,24,24,0,0,1,2.42-3.66,23.2,23.2,0,0,1,3.11-3.09,20.78,20.78,0,0,1,3-2c.43-.26.86-.44,1.22-.62a9.14,9.14,0,0,1,1-.4A4,4,0,0,1,172.82,294.32Z" style="fill:#455a64"></path><path d="M120.94,322.63A12,12,0,0,0,110.85,309a1.18,1.18,0,0,0-.85.1,1.21,1.21,0,0,0-.32,1.15A14.46,14.46,0,0,0,120.92,323" style="fill:#455a64"></path><path d="M104.17,344.71c3,6.22,7.36,10.41,12.73,10.61,1.07,0,1.89-.67,2.91-.73a6.67,6.67,0,0,1,1.72.65,2.37,2.37,0,0,0,.9.2c5.55-.29,10.28-4.2,13.46-10.73,4.44-9.15,3.07-19-3-22a15.05,15.05,0,0,0-2.51-1,10.25,10.25,0,0,0-3.05-.35,22.78,22.78,0,0,0-7,1.57l-.29.11c-5-2.2-9-2.21-12.81-.35C101.09,325.74,99.73,335.56,104.17,344.71Z" style="fill:#E91601"></path><path d="M104.28,335.45a4.78,4.78,0,0,1-.51-1.84,9.91,9.91,0,0,1,3.11-8.41,4.92,4.92,0,0,1,1.58-1.07c0,.07-.57.46-1.37,1.28a10.81,10.81,0,0,0-3,8.17C104.14,334.73,104.35,335.42,104.28,335.45Z" style="fill:#fafafa"></path><path d="M105.4,339.79c-.11,0-.31-.4-.44-1s-.14-1,0-1.06.31.41.44,1S105.52,339.77,105.4,339.79Z" style="fill:#fafafa"></path><path d="M133.59,307.67c0,.08-1.15.52-2.87,1.55a21.82,21.82,0,0,0-2.87,2,22.72,22.72,0,0,0-5.43,6.64,22.39,22.39,0,0,0-1.44,3.21c-.67,1.9-.87,3.14-1,3.13a3.8,3.8,0,0,1,.09-.88,7.43,7.43,0,0,1,.21-1,11.85,11.85,0,0,1,.37-1.32,20.17,20.17,0,0,1,1.37-3.31,23.57,23.57,0,0,1,2.42-3.66A23.8,23.8,0,0,1,127.6,311a20.5,20.5,0,0,1,3-2c.44-.26.86-.44,1.23-.62a7.33,7.33,0,0,1,.95-.4A3.35,3.35,0,0,1,133.59,307.67Z" style="fill:#455a64"></path><path d="M126.71,351.61c3,6.22,7.36,10.41,12.73,10.61,1.07,0,1.88-.67,2.91-.73a6.67,6.67,0,0,1,1.72.65,2.37,2.37,0,0,0,.9.2c5.55-.29,10.28-4.2,13.46-10.73,4.44-9.15,3.07-19-3.05-22a15.05,15.05,0,0,0-2.51-1,10.25,10.25,0,0,0-3.05-.35,22.78,22.78,0,0,0-7,1.57l-.29.11c-5-2.2-9-2.21-12.81-.35C123.63,332.64,122.27,342.46,126.71,351.61Z" style="fill:#E91601"></path><g style="opacity:0.30000000000000004"><path d="M126.71,351.61c3,6.22,7.36,10.41,12.73,10.61,1.07,0,1.88-.67,2.91-.73a6.67,6.67,0,0,1,1.72.65,2.37,2.37,0,0,0,.9.2c5.55-.29,10.28-4.2,13.46-10.73,4.44-9.15,3.07-19-3.05-22a15.05,15.05,0,0,0-2.51-1,10.25,10.25,0,0,0-3.05-.35,22.78,22.78,0,0,0-7,1.57l-.29.11c-5-2.2-9-2.21-12.81-.35C123.63,332.64,122.27,342.46,126.71,351.61Z"></path></g><path d="M126.82,342.35a4.78,4.78,0,0,1-.51-1.84,9.91,9.91,0,0,1,3.11-8.41A4.71,4.71,0,0,1,131,331c0,.07-.57.46-1.38,1.28a11.06,11.06,0,0,0-2.36,3.77,10.83,10.83,0,0,0-.65,4.4C126.68,341.63,126.89,342.32,126.82,342.35Z" style="fill:#fafafa"></path><path d="M127.94,346.69c-.11,0-.31-.4-.44-1s-.14-1,0-1.06.31.4.44,1S128.06,346.67,127.94,346.69Z" style="fill:#fafafa"></path><path d="M176.34,337.25c3,6.21,7.43,10.39,12.86,10.59,1.09,0,1.91-.66,2.94-.72a6.51,6.51,0,0,1,1.74.64,2.28,2.28,0,0,0,.91.2c5.6-.29,10.38-4.19,13.6-10.71,4.49-9.12,3.1-18.92-3.09-21.9a14.9,14.9,0,0,0-2.53-1,10.79,10.79,0,0,0-3.08-.36,23.27,23.27,0,0,0-7,1.58l-.3.1c-5-2.19-9.05-2.2-12.94-.34C173.23,318.33,171.85,328.13,176.34,337.25Z" style="fill:#E91601"></path><g style="opacity:0.5"><path d="M176.34,337.25c3,6.21,7.43,10.39,12.86,10.59,1.09,0,1.91-.66,2.94-.72a6.51,6.51,0,0,1,1.74.64,2.28,2.28,0,0,0,.91.2c5.6-.29,10.38-4.19,13.6-10.71,4.49-9.12,3.1-18.92-3.09-21.9a14.9,14.9,0,0,0-2.53-1,10.79,10.79,0,0,0-3.08-.36,23.27,23.27,0,0,0-7,1.58l-.3.1c-5-2.19-9.05-2.2-12.94-.34C173.23,318.33,171.85,328.13,176.34,337.25Z"></path></g><path d="M176.45,328a4.48,4.48,0,0,1-.51-1.83,9.8,9.8,0,0,1,3.13-8.39,4.84,4.84,0,0,1,1.6-1.06c.05.06-.57.45-1.38,1.27a10.89,10.89,0,0,0-2.4,3.76,10.61,10.61,0,0,0-.65,4.39C176.31,327.3,176.52,328,176.45,328Z" style="fill:#fafafa"></path><path d="M177.59,332.35c-.12,0-.32-.4-.45-1s-.14-1,0-1.06.32.4.45,1S177.7,332.32,177.59,332.35Z" style="fill:#fafafa"></path><path d="M166.66,333.17a12,12,0,0,0-10.08-13.66,1.23,1.23,0,0,0-.85.1,1.21,1.21,0,0,0-.32,1.15,14.43,14.43,0,0,0,11.24,12.76" style="fill:#455a64"></path><path d="M149.9,355.25c3,6.22,7.35,10.41,12.73,10.61,1.07,0,1.88-.66,2.91-.72a6.52,6.52,0,0,1,1.72.64,2.19,2.19,0,0,0,.89.2c5.56-.29,10.28-4.2,13.47-10.73,4.44-9.15,3.07-19-3.06-22a13.78,13.78,0,0,0-2.5-1A9.93,9.93,0,0,0,173,332a22.78,22.78,0,0,0-7,1.57l-.3.11c-5-2.2-8.95-2.21-12.81-.35C146.82,336.28,145.46,346.1,149.9,355.25Z" style="fill:#E91601"></path><path d="M150,346a4.78,4.78,0,0,1-.51-1.84,9.89,9.89,0,0,1,.55-4.58,9.77,9.77,0,0,1,2.56-3.83,4.92,4.92,0,0,1,1.58-1.07c0,.07-.57.46-1.38,1.29a10.91,10.91,0,0,0-2.36,3.76,10.66,10.66,0,0,0-.65,4.4C149.87,345.27,150.08,346,150,346Z" style="fill:#fafafa"></path><path d="M151.13,350.33c-.11,0-.31-.4-.44-1s-.14-1,0-1.06.31.41.43,1S151.25,350.31,151.13,350.33Z" style="fill:#fafafa"></path><path d="M179.32,318.21c0,.08-1.15.52-2.87,1.55a22.8,22.8,0,0,0-2.87,2.05,24.4,24.4,0,0,0-3,3.06,24.87,24.87,0,0,0-2.4,3.58,22.39,22.39,0,0,0-1.44,3.21c-.67,1.9-.87,3.14-1,3.13a3.21,3.21,0,0,1,.09-.88,7.74,7.74,0,0,1,.21-1c.1-.39.19-.84.36-1.32a21.22,21.22,0,0,1,1.38-3.31,23.57,23.57,0,0,1,2.42-3.66,23.8,23.8,0,0,1,3.11-3.09,21.35,21.35,0,0,1,3-2c.43-.26.86-.44,1.22-.62a7.4,7.4,0,0,1,1-.4A4,4,0,0,1,179.32,318.21Z" style="fill:#455a64"></path><path d="M201.77,343.37c3,6.22,7.35,10.41,12.72,10.61,1.08,0,1.89-.66,2.92-.72a6.52,6.52,0,0,1,1.72.64,2.19,2.19,0,0,0,.89.2c5.55-.29,10.28-4.2,13.47-10.73,4.44-9.15,3.07-19-3.06-22a14.64,14.64,0,0,0-2.5-1,10.28,10.28,0,0,0-3.05-.35,22.66,22.66,0,0,0-7,1.57l-.3.11c-5-2.2-9-2.21-12.81-.35C198.69,324.4,197.33,334.22,201.77,343.37Z" style="fill:#E91601"></path><path d="M201.87,334.11a4.9,4.9,0,0,1-.5-1.84,9.75,9.75,0,0,1,.55-4.58,9.86,9.86,0,0,1,2.55-3.83,5,5,0,0,1,1.59-1.07c0,.07-.57.46-1.38,1.29a10.77,10.77,0,0,0-3,8.16C201.74,333.39,202,334.09,201.87,334.11Z" style="fill:#fafafa"></path><path d="M203,338.45c-.11,0-.31-.4-.44-1s-.14-1,0-1.06.31.41.44,1S203.11,338.43,203,338.45Z" style="fill:#fafafa"></path><path d="M239.42,324.29a12,12,0,0,0-10.09-13.66,1.13,1.13,0,0,0-.85.1c-.35.23-.36.73-.32,1.15a14.47,14.47,0,0,0,11.24,12.75" style="fill:#455a64"></path><path d="M222.65,346.36c3,6.22,7.36,10.41,12.73,10.62,1.07,0,1.88-.67,2.91-.73a6.32,6.32,0,0,1,1.72.65,2.58,2.58,0,0,0,.9.2c5.55-.3,10.28-4.21,13.46-10.74,4.44-9.14,3.07-19-3.05-21.95a15.05,15.05,0,0,0-2.51-1,10.25,10.25,0,0,0-3.05-.36,22.85,22.85,0,0,0-7,1.58l-.29.1c-5-2.19-9-2.21-12.81-.34C219.57,327.39,218.21,337.22,222.65,346.36Z" style="fill:#E91601"></path><g style="opacity:0.30000000000000004"><path d="M222.65,346.36c3,6.22,7.36,10.41,12.73,10.62,1.07,0,1.88-.67,2.91-.73a6.32,6.32,0,0,1,1.72.65,2.58,2.58,0,0,0,.9.2c5.55-.3,10.28-4.21,13.46-10.74,4.44-9.14,3.07-19-3.05-21.95a15.05,15.05,0,0,0-2.51-1,10.25,10.25,0,0,0-3.05-.36,22.85,22.85,0,0,0-7,1.58l-.29.1c-5-2.19-9-2.21-12.81-.34C219.57,327.39,218.21,337.22,222.65,346.36Z"></path></g><path d="M222.76,337.1a4.7,4.7,0,0,1-.51-1.84,9.93,9.93,0,0,1,3.11-8.41,4.57,4.57,0,0,1,1.58-1.06c0,.06-.57.46-1.37,1.28a10.77,10.77,0,0,0-3,8.16C222.62,336.38,222.83,337.08,222.76,337.1Z" style="fill:#fafafa"></path><path d="M223.88,341.45c-.11,0-.31-.41-.44-1s-.14-1,0-1.06.31.41.44,1S224,341.42,223.88,341.45Z" style="fill:#fafafa"></path><path d="M252.07,309.33c0,.07-1.15.51-2.87,1.55a22.63,22.63,0,0,0-2.87,2,22.72,22.72,0,0,0-5.43,6.64,22.46,22.46,0,0,0-1.44,3.22c-.67,1.89-.87,3.14-1,3.12a3.83,3.83,0,0,1,.09-.88,7.64,7.64,0,0,1,.21-1,11.4,11.4,0,0,1,.37-1.33,20.1,20.1,0,0,1,1.37-3.3,24.12,24.12,0,0,1,2.42-3.67,23.8,23.8,0,0,1,3.11-3.09,20.36,20.36,0,0,1,3-2,10.84,10.84,0,0,1,1.22-.62,8.29,8.29,0,0,1,1-.41A3,3,0,0,1,252.07,309.33Z" style="fill:#455a64"></path><path d="M188.9,336.75a12,12,0,0,0-10.08-13.66,1.18,1.18,0,0,0-.85.1,1.21,1.21,0,0,0-.32,1.15,14.43,14.43,0,0,0,11.24,12.76" style="fill:#455a64"></path><path d="M172.14,358.83c3,6.22,7.36,10.41,12.73,10.61,1.07,0,1.88-.67,2.91-.73a6.81,6.81,0,0,1,1.72.65,2.19,2.19,0,0,0,.89.2c5.56-.29,10.29-4.2,13.47-10.73,4.44-9.15,3.07-19-3.05-22a15.05,15.05,0,0,0-2.51-1,10.25,10.25,0,0,0-3.05-.35,22.78,22.78,0,0,0-7,1.57l-.3.11c-5-2.2-9-2.21-12.8-.35C169.06,339.86,167.7,349.68,172.14,358.83Z" style="fill:#E91601"></path><g style="opacity:0.30000000000000004"><path d="M172.14,358.83c3,6.22,7.36,10.41,12.73,10.61,1.07,0,1.88-.67,2.91-.73a6.81,6.81,0,0,1,1.72.65,2.19,2.19,0,0,0,.89.2c5.56-.29,10.29-4.2,13.47-10.73,4.44-9.15,3.07-19-3.05-22a15.05,15.05,0,0,0-2.51-1,10.25,10.25,0,0,0-3.05-.35,22.78,22.78,0,0,0-7,1.57l-.3.11c-5-2.2-9-2.21-12.8-.35C169.06,339.86,167.7,349.68,172.14,358.83Z"></path></g><path d="M172.25,349.57a4.78,4.78,0,0,1-.51-1.84,9.91,9.91,0,0,1,3.11-8.41,4.92,4.92,0,0,1,1.58-1.07c0,.07-.57.46-1.38,1.29a10.81,10.81,0,0,0-3,8.16C172.11,348.85,172.32,349.55,172.25,349.57Z" style="fill:#fafafa"></path><path d="M173.37,353.91c-.11,0-.31-.4-.44-1s-.14-1,0-1.06.31.41.44,1S173.49,353.89,173.37,353.91Z" style="fill:#fafafa"></path><path d="M201.56,321.79c0,.08-1.15.52-2.87,1.55a21.82,21.82,0,0,0-2.87,2.05,22.72,22.72,0,0,0-5.43,6.64,22.39,22.39,0,0,0-1.44,3.21c-.67,1.9-.87,3.14-.95,3.13a3.8,3.8,0,0,1,.09-.88,7.74,7.74,0,0,1,.21-1,11.85,11.85,0,0,1,.37-1.32,20.17,20.17,0,0,1,1.37-3.31,23.57,23.57,0,0,1,2.42-3.66,23.8,23.8,0,0,1,3.11-3.09,21.35,21.35,0,0,1,3-2c.43-.26.86-.44,1.22-.62a8,8,0,0,1,1-.4A4,4,0,0,1,201.56,321.79Z" style="fill:#455a64"></path><path d="M77,316.55v52.37s114.4,32.18,115.07,31.74,0-53.19,0-53.19l-26.35-4.66-.47,19-60.1-16.53L104.93,326Z" style="fill:#455a64"></path><path d="M261.11,327.81a3.61,3.61,0,0,1-.69.24l-2,.58-7.4,2.11c-6.24,1.78-14.85,4.33-24.35,7.15s-18.12,5.32-24.4,7c-3.13.85-5.68,1.52-7.44,2l-2,.49a3.75,3.75,0,0,1-.71.13,3.82,3.82,0,0,1,.69-.23l2-.59,7.39-2.1c6.25-1.78,14.85-4.33,24.36-7.16s18.12-5.32,24.39-7c3.14-.85,5.68-1.51,7.45-1.94l2-.49A3.45,3.45,0,0,1,261.11,327.81Z" style="fill:#455a64"></path><polygon points="259.2 376.83 192.07 400.66 192.07 347.78 261.11 327.81 259.2 376.83" style="fill:#263238"></polygon><polygon points="163.11 376.19 105.99 361.37 106.49 354.52 163.37 369.28 163.11 376.19" style="fill:#fff"></polygon><path d="M285.14,261.25l10.67,44-38.92,40,7.32,20.14s58.82-33.83,61.42-43.72a48.16,48.16,0,0,0,1.11-18.48l-4.44-46.55Z" style="fill:#aa6550"></path><path d="M262.62,339.34,255.49,346l-13.09-.06-4.4-2.28H221.12s-1.71,2.42,1.13,4.4a21.45,21.45,0,0,0,8.94,3.69c2.24.5,5.68,1.42,5.68,1.42l-1.63,6.9-10.42,21.43s-6.79,10-7.22,10.11L210.9,394s3.55,5,6.95,4,4.54-2.41,4.54-2.41,5.11,1.7,7.52-.14a37.3,37.3,0,0,0,3.27-2.7,6.93,6.93,0,0,0,5.25-.14c2.41-1.28,9.93-6.24,9.93-6.24l5.8-13.5,12-8.63" style="fill:#aa6550"></path><path d="M237.49,378.69a18.36,18.36,0,0,1-1.92,2.75c-1.25,1.65-3,3.87-5.16,6.22s-4.11,4.4-5.6,5.83a18.84,18.84,0,0,1-2.52,2.21,24.56,24.56,0,0,1,2.26-2.47c1.42-1.5,3.38-3.57,5.47-5.91s3.94-4.53,5.27-6.11A25.35,25.35,0,0,1,237.49,378.69Z" style="fill:#723c31"></path><path d="M241.7,382.25a7.92,7.92,0,0,1-1.19,1.83c-.8,1.09-1.95,2.55-3.3,4.1a52.76,52.76,0,0,1-4.92,5.05l0,0h0A.23.23,0,0,1,232,393c0-.09.05-.11.06-.1s0,0,0,.08.1.11.15.08l0,0c.57-.73,2.47-2.79,4.64-5.29C239.5,384.75,241.58,382.16,241.7,382.25Z" style="fill:#723c31"></path><path d="M244.36,386.26a20.78,20.78,0,0,1-9.12,7c-.07-.14,2.23-1.33,4.74-3.27S244.24,386.15,244.36,386.26Z" style="fill:#723c31"></path><path d="M236.64,360.05a36.69,36.69,0,0,0,1.08-3.79,34.78,34.78,0,0,0,.14-3.94,8.21,8.21,0,0,1-1.22,7.73Z" style="fill:#723c31"></path><path d="M253.27,154.58l-13.65,24.66-19.18,20-11.83-15.55-.39-15.91-.33-13.35s-17.77-2.07-18.67-19.72c-.43-8.53.1-26.15.78-42.1a32.94,32.94,0,0,1,31.64-31.53l1.71-.07c18.41.37,28.39,16.22,27.51,34.62l2.41,59" style="fill:#aa6550"></path><path d="M207.87,154.4A41.08,41.08,0,0,0,230.64,147s-4.95,12.92-22.64,12Z" style="fill:#723c31"></path><path d="M196.87,102.63a2.52,2.52,0,0,0,2.53,2.45,2.41,2.41,0,0,0,2.51-2.37,2.52,2.52,0,0,0-2.52-2.46A2.42,2.42,0,0,0,196.87,102.63Z" style="fill:#263238"></path><path d="M193.83,100.16c.32.32,2.18-1.17,4.89-1.27s4.76,1.19,5,.84c.14-.15-.2-.73-1.09-1.33a6.92,6.92,0,0,0-4-1.08,6.67,6.67,0,0,0-3.88,1.42C193.93,99.41,193.67,100,193.83,100.16Z" style="fill:#263238"></path><path d="M223.29,102.63a2.52,2.52,0,0,0,2.53,2.45,2.41,2.41,0,0,0,2.51-2.37,2.53,2.53,0,0,0-2.53-2.46A2.41,2.41,0,0,0,223.29,102.63Z" style="fill:#263238"></path><path d="M220.84,98.36c.29.35,2.3-.93,5-.73s4.6,1.69,4.92,1.38c.15-.14-.12-.75-1-1.44a7,7,0,0,0-3.91-1.52,6.71,6.71,0,0,0-4,1C221,97.63,220.7,98.2,220.84,98.36Z" style="fill:#263238"></path><path d="M211.75,121.07c0-.16-1.7-.38-4.44-.63-.7,0-1.36-.16-1.49-.62a3.45,3.45,0,0,1,.38-2.08l1.85-5.35c2.55-7.63,4.38-13.88,4.07-14s-2.63,6-5.19,13.63q-.92,2.82-1.76,5.38a4,4,0,0,0-.25,2.73,1.7,1.7,0,0,0,1.17,1,4.36,4.36,0,0,0,1.19.12C210,121.28,211.74,121.22,211.75,121.07Z" style="fill:#263238"></path><path d="M219.81,122.64c-.45,0-.34,2.94-2.78,5.12s-5.59,2-5.6,2.4c0,.19.72.55,2,.53a7.3,7.3,0,0,0,4.68-1.83,6.42,6.42,0,0,0,2.14-4.29C220.36,123.33,220,122.61,219.81,122.64Z" style="fill:#263238"></path><path d="M220,86.66c.3.73,3,.28,6.19.54s5.81,1,6.21.35c.17-.32-.3-1-1.37-1.68a10.34,10.34,0,0,0-4.64-1.42,10.22,10.22,0,0,0-4.8.75C220.46,85.71,219.89,86.32,220,86.66Z" style="fill:#263238"></path><path d="M194.21,94.8c.5.6,2.35-.11,4.6-.23s4.16.26,4.58-.41c.18-.32-.14-.92-1-1.47a6.65,6.65,0,0,0-7.39.51C194.23,93.86,194,94.51,194.21,94.8Z" style="fill:#263238"></path><path d="M249.92,108.74c.3-.14,12-4,12.08,8s-12.08,9.67-12.1,9.32S249.92,108.74,249.92,108.74Z" style="fill:#aa6550"></path><path d="M253.56,121.5c.05,0,.21.15.57.31a2.16,2.16,0,0,0,1.58,0c1.27-.48,2.33-2.51,2.38-4.69a7.07,7.07,0,0,0-.61-3,2.43,2.43,0,0,0-1.6-1.61,1.07,1.07,0,0,0-1.24.59c-.16.33-.08.58-.14.6s-.26-.2-.17-.7a1.35,1.35,0,0,1,.47-.76,1.57,1.57,0,0,1,1.16-.32,3,3,0,0,1,2.22,1.86,7.18,7.18,0,0,1,.75,3.37c-.06,2.43-1.29,4.72-3,5.24a2.3,2.3,0,0,1-1.93-.31C253.59,121.79,253.52,121.52,253.56,121.5Z" style="fill:#723c31"></path><path d="M187.24,72.05c.44-2.35,2.09-4.66,4.45-5.1A5.5,5.5,0,0,1,200,60.22c-.29-3.68,4.12-6.82,7.5-5.34a4.76,4.76,0,0,1,8.81-2.94c2.36-4.43,9.41-5.28,12.75-1.54a10.5,10.5,0,0,1,13,5.14,9.94,9.94,0,0,1,9,6.51,7.28,7.28,0,0,1,5.83,11.19,5.39,5.39,0,0,1,1.45,8.47,5.3,5.3,0,0,1,.22,9.59c1.79.15,2.59,2.47,2.13,4.2s-1.7,3.16-2.34,4.83c-.52,1.38-.63,2.89-1.07,4.3a9.63,9.63,0,0,1-5.48,5.91l.33.35c.38,1.53-1.74,2.68-3.22,2.12s-2.36-2-3.25-3.33A17.24,17.24,0,0,1,243,105c-.51-1.73-.1-3.91,1.48-4.81a6.26,6.26,0,0,1-4-4.83,18.5,18.5,0,0,1,.12-6.55c.45-3.22.89-6.43,1.34-9.64a12.08,12.08,0,0,1-10.69-6.45,6.91,6.91,0,0,1-10.12-2.06,9,9,0,0,1-10.73,6c.58,2.48-3.82,5-6.25,5.73s-5.58-.86-5.58-.86-4.13,2.66-6.48,1.83-5.48-3.61-4.08-6.06A11.2,11.2,0,0,1,187.24,72.05Z" style="fill:#263238"></path><path d="M259,81.65c-.12,0-.16.84-1.14,1.61a2.3,2.3,0,0,1-2,.43A2.43,2.43,0,0,1,254.12,82l-.17-.72-.54.52a3.29,3.29,0,0,1-3.3.65,3.22,3.22,0,0,1-2-3.13l0-.72-.64.3a3.15,3.15,0,0,1-4-1.17,7.55,7.55,0,0,1-.68-1.74c-.06,0-.34.78.24,2a3.57,3.57,0,0,0,1.7,1.64,3.89,3.89,0,0,0,3.06,0l-.59-.42A4,4,0,0,0,254,82.38l-.71-.2a3.15,3.15,0,0,0,2.43,2.21,2.8,2.8,0,0,0,2.45-.73C259.23,82.6,259,81.61,259,81.65Z" style="fill:#455a64"></path><path d="M261.24,93.15a7.17,7.17,0,0,1-1.27.56,2.91,2.91,0,0,1-3.09-1.17l-.25-.41-.32.36a3.23,3.23,0,0,1-3,1,3.15,3.15,0,0,1-2.37-2.74l-.07-.79-.66.46a1.84,1.84,0,0,1-.54.28,2.22,2.22,0,0,1-2.47-.72,2.33,2.33,0,0,1-.19-2.4l.42-.77-.85.17a3.78,3.78,0,0,1-4.24-2.36,8.33,8.33,0,0,1-.36-2.1c-.05,0-.49.8-.1,2.25a4.06,4.06,0,0,0,1.5,2.19,4.42,4.42,0,0,0,3.35.82l-.43-.6a3.13,3.13,0,0,0,.18,3.32,3.07,3.07,0,0,0,3.48,1.06,2.67,2.67,0,0,0,.79-.4l-.72-.33a4,4,0,0,0,3.1,3.49A3.93,3.93,0,0,0,256.85,93l-.57,0a3.1,3.1,0,0,0,2,1.31,3.29,3.29,0,0,0,1.78-.13C261,93.73,261.28,93.17,261.24,93.15Z" style="fill:#455a64"></path><path d="M209.11,54.47a4.23,4.23,0,0,1,1.33-.84,2.54,2.54,0,0,1,1.76,0,2.61,2.61,0,0,1,1.54,1.69l.19.69.34-.64a4.41,4.41,0,0,1,3.64-2.23,4.29,4.29,0,0,1,4.1,2.88l.26.78.48-.68a5.35,5.35,0,0,1,4.1-2.16,5.11,5.11,0,0,1,4.37,2.23,5,5,0,0,1,.84,1.92l.1.49.48-.14A5.16,5.16,0,0,1,238.5,61a5.28,5.28,0,0,1-.63,5.67l-.45.52.67.09a5.62,5.62,0,0,1,4.85,5.33,8.68,8.68,0,0,1-.52,3s.21-.2.44-.68a5.56,5.56,0,0,0,.49-2.27,5.88,5.88,0,0,0-1.07-3.51,6.29,6.29,0,0,0-4.08-2.55l.22.61a5.85,5.85,0,0,0-6-9.5L233,58a6.1,6.1,0,0,0-6.14-4.88,6.2,6.2,0,0,0-4.74,2.58l.74.11a5,5,0,0,0-4.94-3.34,5,5,0,0,0-4.11,2.7l.53,0a3.08,3.08,0,0,0-1.93-1.95,2.85,2.85,0,0,0-2,.1,2.67,2.67,0,0,0-1,.75C209.14,54.32,209.09,54.46,209.11,54.47Z" style="fill:#455a64"></path></g><g id="freepik--character-2--inject-160"><path d="M438.4,189s30.74,10.24,36.69,15.56,11,37.59,11,37.59l1.25,26.63H457.24l-8.73,75.3-102.17-5.45,9.4-77.68-41.35-7.11s16.29-44.27,20.68-49c0,0,14.09-9.08,16.6-9.08a19.19,19.19,0,0,0,4.7-.63s8.14-2.82,9.4-4.38,5.32-2.82,5.32-2.82l6-8.77L425,176.35s6.27,1.56,8.15,2.82S438.4,189,438.4,189Z" style="fill:#263238"></path><path d="M421.23,208a3.2,3.2,0,0,1-.43.51l-1.28,1.38c-1.11,1.2-2.7,3-4.56,5.21a77.79,77.79,0,0,0-12,19.35l-.08.18-.19,0-.24,0-12.57-1.62-.26,0,.06-.26a40.52,40.52,0,0,1,5.78-13.16A34.45,34.45,0,0,1,398,216.2c.3-.37.56-.64.73-.82s.26-.27.27-.26a13.46,13.46,0,0,1-.88,1.17c-.59.76-1.42,1.88-2.37,3.35a42.22,42.22,0,0,0-5.55,13.11l-.2-.29L402.54,234l.23,0-.27.16a74.45,74.45,0,0,1,12.18-19.38c1.91-2.23,3.54-4,4.7-5.12.57-.58,1-1,1.35-1.31A2.79,2.79,0,0,1,421.23,208Z" style="fill:#455a64"></path><path d="M393.46,214.25s-.22,0-.58-.09a2.5,2.5,0,0,0-1.48.29,2.09,2.09,0,0,0,.35,3.79,2.05,2.05,0,0,0,2.33-.74,2.24,2.24,0,0,0,.24-2.1,2.85,2.85,0,0,0-1-1.16c-.3-.22-.49-.32-.48-.35s.23,0,.59.18a2.77,2.77,0,0,1,1.21,1.18,2.57,2.57,0,0,1-.18,2.51,2.55,2.55,0,0,1-4.23,0,2.74,2.74,0,0,1-.39-1.5,2.39,2.39,0,0,1,1.37-2.1,2.48,2.48,0,0,1,1.69-.16C393.3,214.08,393.47,214.23,393.46,214.25Z" style="fill:#455a64"></path><path d="M373.32,184.64s-.07.16-.24.44l-.76,1.23a35.89,35.89,0,0,0-2.38,4.82,33.3,33.3,0,0,0-2.06,7.83,22.46,22.46,0,0,0,.76,10h-.48c.85-2.31,1.74-4.76,2.66-7.27.21-.54.38-1.08.65-1.63a2.23,2.23,0,0,1,1.34-1.28,2.4,2.4,0,0,1,1.81.3,9.53,9.53,0,0,1,1.39,1c1.72,1.33,3.41,2.59,5,3.76,3.25,2.34,6.25,4.36,8.8,6s4.64,2.93,6.09,3.81l1.67,1a2.8,2.8,0,0,1,.56.39,4.61,4.61,0,0,1-.61-.3c-.4-.2-1-.51-1.72-.93-1.49-.83-3.61-2.06-6.19-3.66s-5.6-3.6-8.88-5.93c-1.63-1.17-3.33-2.42-5.07-3.75a9.77,9.77,0,0,0-1.32-.92,2,2,0,0,0-1.41-.26,1.81,1.81,0,0,0-1,1c-.24.48-.41,1-.62,1.58l-2.67,7.26-.25.67-.23-.67a22.78,22.78,0,0,1-.72-10.28,32.72,32.72,0,0,1,2.2-7.9,31.24,31.24,0,0,1,2.53-4.78c.35-.53.64-.92.84-1.19A2.34,2.34,0,0,1,373.32,184.64Z" style="fill:#455a64"></path><path d="M403.05,215.43a2,2,0,0,1,.51-.26l1.49-.66,5.53-2.35c4.69-1.94,11.14-4.64,18.34-7.51a45.24,45.24,0,0,1,6.81-2.09,17.22,17.22,0,0,1,3.31-.41,7.15,7.15,0,0,1,1.61.16,2.21,2.21,0,0,1,1.44.86l-.43.14c-1-4.19-1.77-7.72-2.36-10.27l-.63-2.9a4.65,4.65,0,0,1-.17-1,7,7,0,0,1,.31,1l.75,2.86c.63,2.55,1.5,6.06,2.54,10.24l.32,1.25-.75-1.11a1.93,1.93,0,0,0-1.13-.58,6.12,6.12,0,0,0-1.5-.13,16.7,16.7,0,0,0-3.21.41,45.79,45.79,0,0,0-6.73,2.09l-18.38,7.37-5.59,2.18-1.53.57A2,2,0,0,1,403.05,215.43Z" style="fill:#455a64"></path><path d="M473.53,205.2c0,.1-1.72-.66-4.6-1.24a26.33,26.33,0,0,0-21.59,5.15c-2.31,1.82-3.47,3.25-3.55,3.18a6.19,6.19,0,0,1,.79-1,22.51,22.51,0,0,1,2.53-2.45A25.28,25.28,0,0,1,469,203.6a23.07,23.07,0,0,1,3.36,1A5.77,5.77,0,0,1,473.53,205.2Z" style="fill:#455a64"></path><path d="M358.45,219.28a1.93,1.93,0,0,1,0,.48c-.06.36-.12.81-.2,1.34-.19,1.17-.44,2.86-.72,5a156.22,156.22,0,0,0-1.29,16.44,154.1,154.1,0,0,0,.53,16.47c.18,2.1.35,3.81.49,5l.13,1.35a1.76,1.76,0,0,1,0,.48,1.44,1.44,0,0,1-.11-.46L357,264c-.19-1.17-.42-2.87-.65-5a128.37,128.37,0,0,1,.77-33c.32-2.09.63-3.78.88-4.93.12-.53.21-1,.29-1.33A1.4,1.4,0,0,1,358.45,219.28Z" style="fill:#455a64"></path><path d="M356.94,216.7a26.74,26.74,0,0,0-10.2-12.93,8.16,8.16,0,0,1,2.17,1.21,20.83,20.83,0,0,1,7.36,9.33A7.89,7.89,0,0,1,356.94,216.7Z" style="fill:#455a64"></path><path d="M440.06,246.42a4.46,4.46,0,0,1,0-1.17c0-.76.06-1.85.18-3.2a75.85,75.85,0,0,1,4.71-20.5c.48-1.26.91-2.26,1.23-3a4.57,4.57,0,0,1,.54-1,5.52,5.52,0,0,1-.36,1.12c-.26.71-.63,1.73-1.07,3a99.16,99.16,0,0,0-2.91,10.08,101.55,101.55,0,0,0-1.78,10.33c-.16,1.34-.27,2.42-.34,3.17A6,6,0,0,1,440.06,246.42Z" style="fill:#455a64"></path><polygon points="453.22 342.32 463.85 378.69 473.03 481.05 450.03 461.93 453.22 342.32" style="fill:#263238"></polygon><path d="M352,240s-14.89,90.67-14.46,93.59c1.08,7.39,8.59,8.78,8.59,8.78l100.61-2.9s11.91,1.43,11.17-13.69c-1-20.63-3.95-44.88-3.95-47.41Z" style="fill:#263238"></path><path d="M361.6,239.83a22.81,22.81,0,0,1-.77,3.14c-.52,1.93-1.23,4.6-2,7.55s-1.36,5.65-1.81,7.6a22.53,22.53,0,0,1-.8,3.14,18.31,18.31,0,0,1,.44-3.22c.36-2,.92-4.68,1.66-7.64s1.52-5.62,2.13-7.53A16.78,16.78,0,0,1,361.6,239.83Z" style="fill:#263238"></path><polygon points="453.91 344.44 450.88 335.19 440.48 264.69 439.46 202.06 432.02 203.69 431.83 243.57 371.57 248.38 377.96 202.34 373.81 199.26 372.7 199.26 371.91 199.97 360.74 253.51 346.34 338.62 342.24 339.42 339.63 361.43 324.12 481.05 473.03 481.05 453.91 344.44" style="fill:#E91601"></polygon><g style="opacity:0.30000000000000004"><path d="M346.76,333.7c8.53,5.44,19.45,5.82,29.37,3.82s19.27-6.13,28.91-9.2,20-5.09,29.86-2.7a42.38,42.38,0,0,0,6.62,1.47,8,8,0,0,0,6.29-1.93c2.18-2.2,2.09-6,.51-8.61s-4.34-4.4-7.14-5.71c-7.15-3.34-15.14-4.47-23-4.71a110.89,110.89,0,0,0-66.68,20.07c-2.73,1.92-5.64,4.52-5.47,7.85"></path></g><rect x="414.18" y="249.74" width="20.41" height="5.69" transform="translate(864.43 476.76) rotate(176.24)" style="fill:#fafafa"></rect><path d="M423.05,340.85a4,4,0,0,1-.36.66l-1.13,1.83c-.48.8-1.1,1.76-1.86,2.85s-1.58,2.35-2.6,3.68-2.09,2.81-3.35,4.32-2.61,3.11-4.07,4.77a122.07,122.07,0,0,1-21.56,19c-1.83,1.23-3.56,2.42-5.26,3.42s-3.25,2-4.71,2.77-2.81,1.5-4,2.11-2.21,1.1-3.07,1.48l-2,.88a4.61,4.61,0,0,1-.7.28,3.63,3.63,0,0,1,.66-.37l1.91-1c.84-.41,1.86-.92,3-1.56s2.51-1.31,3.94-2.17,3-1.75,4.67-2.81,3.39-2.22,5.21-3.45a142,142,0,0,0,11.27-8.84c3.8-3.37,7.22-6.8,10.21-10,1.45-1.65,2.86-3.2,4.09-4.73s2.37-2.94,3.38-4.26,1.88-2.56,2.66-3.63,1.42-2,1.93-2.79l1.21-1.78A4.76,4.76,0,0,1,423.05,340.85Z" style="fill:#263238"></path><g style="opacity:0.30000000000000004"><path d="M371.44,387.68c2.34-10,9.32-18.41,17.58-24.5s20.21-11.78,29.66-15.77c-12.17,15.57-26.34,29.45-47.24,40.27"></path></g><path d="M487.31,268.76s-5.08-18.77-23.56-18.25-23,7.75-23,7.75l-1.36,16.63s-19.18,5.29-28.59,6.43-51.06-5.7-51.06-5.7l-5.84.34-6.72,14.29s18.55,6.19,21.11,7.33,67.33,26.82,83,24.82,14.26-4,14.26-4,11.41-14.15,15.69-31.9S487.31,268.76,487.31,268.76Z" style="fill:#b78876"></path><path d="M409.3,281.74a13.68,13.68,0,0,1,1.75-.45l4.8-1.15,15.79-4,15.76-4.08,4.76-1.29a13.37,13.37,0,0,1,1.75-.45,1.86,1.86,0,0,1-.43.19c-.28.11-.71.28-1.26.46-1.11.36-2.72.86-4.73,1.44-4,1.16-9.56,2.66-15.72,4.24s-11.77,2.91-15.84,3.82c-2,.45-3.69.79-4.84,1-.57.11-1,.17-1.32.21A2.38,2.38,0,0,1,409.3,281.74Z" style="fill:#995037"></path><path d="M355.73,259.83s-5-5.44-16.07-6.58-25.27.57-25.27.57-6.05,22.82-6.73,32.69,2.49,36.42,5.22,38.91,4.76,2.05,5.9,1.82a54.52,54.52,0,0,1,6.58.18s28.14,9.35,57.64.95,39.39-11.56,39.39-11.56l-51.73-18.27-23.46-8.29s10-16.27,9.05-27.37" style="fill:#b78876"></path><path d="M326.74,283.65l.25,0,.75.17,1.21.29,1.63.48c2.46.71,6,1.85,10.31,3.29,8.67,2.89,20.59,7,33.73,11.68s25,8.94,33.6,12.06l10.15,3.72,2.76,1,.71.28c.16.06.24.1.23.11l-.25-.06-.73-.23-2.79-.94L408.09,312l-33.64-11.92c-13.14-4.65-25-8.85-33.68-11.82-4.31-1.48-7.81-2.68-10.25-3.45l-1.61-.52-1.19-.34-.74-.22C326.82,283.69,326.73,283.66,326.74,283.65Z" style="fill:#995037"></path><path d="M355.62,259.42a5.22,5.22,0,0,1,.4,1.21,18,18,0,0,1,.48,3.45,28.76,28.76,0,0,1-2,11.24,105,105,0,0,1-4.78,10.38l-1.54,3.09a6.05,6.05,0,0,1-.6,1.12,5.66,5.66,0,0,1,.42-1.2c.3-.76.78-1.84,1.39-3.17,1.21-2.66,3.07-6.24,4.63-10.4a30.88,30.88,0,0,0,2.12-11.05A35.52,35.52,0,0,0,355.62,259.42Z" style="fill:#995037"></path><path d="M426.84,142.75c2.36-7,4.69-14,5.81-21.25s1-14.86-1.48-21.78c-.37-1-3.6-8.1-4.71-8-.79.07,1.17,6.63.76,7.31-3.91,6.53-5.05,14.41-4.53,22a99.35,99.35,0,0,0,4.15,21.72" style="fill:#263238"></path><path d="M406.24,204A21,21,0,0,0,427,183.31l.89-68.6c.82-18.43-9.21-34.26-27.65-34.58l-1.71.07A33,33,0,0,0,367,111.85c-.63,16-1.12,33.62-.66,42.16.95,17.67,18.75,19.69,18.75,19.69s.05,4.1,0,9.29a21,21,0,0,0,21.14,21Z" style="fill:#b78876"></path><path d="M385.06,173.7a42.78,42.78,0,0,0,22.74-7.76S402.71,179,385,178.17Z" style="fill:#995037"></path><path d="M373.74,122.8a2.53,2.53,0,0,0,2.54,2.45,2.42,2.42,0,0,0,2.51-2.38,2.53,2.53,0,0,0-2.54-2.45A2.42,2.42,0,0,0,373.74,122.8Z" style="fill:#263238"></path><path d="M371.05,119c.33.31,2.18-1.18,4.9-1.29s4.76,1.18,5,.83c.14-.15-.2-.73-1.1-1.33a6.93,6.93,0,0,0-4.05-1.07A6.67,6.67,0,0,0,372,117.6C371.15,118.28,370.89,118.89,371.05,119Z" style="fill:#263238"></path><path d="M400.15,122.8a2.53,2.53,0,0,0,2.54,2.45,2.42,2.42,0,0,0,2.51-2.38,2.53,2.53,0,0,0-2.54-2.45A2.41,2.41,0,0,0,400.15,122.8Z" style="fill:#263238"></path><path d="M397.71,119c.32.31,2.18-1.18,4.9-1.29s4.76,1.18,5,.83c.14-.15-.2-.73-1.1-1.33a6.93,6.93,0,0,0-4.05-1.07,6.7,6.7,0,0,0-3.89,1.43C397.81,118.28,397.55,118.89,397.71,119Z" style="fill:#263238"></path><path d="M388.82,140.31c0-.16-1.69-.38-4.44-.62-.7,0-1.36-.15-1.5-.62a3.63,3.63,0,0,1,.38-2.08l1.83-5.36c2.54-7.64,4.35-13.91,4-14s-2.62,6-5.15,13.65c-.61,1.88-1.2,3.68-1.75,5.39a4.07,4.07,0,0,0-.25,2.74,1.76,1.76,0,0,0,1.19,1,4.76,4.76,0,0,0,1.18.12C387.11,140.52,388.82,140.46,388.82,140.31Z" style="fill:#263238"></path><path d="M396.9,141.86c-.45,0-.33,2.94-2.77,5.13s-5.59,2-5.59,2.42c0,.19.72.54,2,.53a7.39,7.39,0,0,0,4.68-1.85,6.49,6.49,0,0,0,2.13-4.31C397.46,142.55,397.1,141.83,396.9,141.86Z" style="fill:#263238"></path><path d="M397.4,108c.3.72,3,.26,6.2.51s5.82,1,6.21.34c.18-.33-.3-1-1.37-1.67a10.18,10.18,0,0,0-4.65-1.42,10.33,10.33,0,0,0-4.8.77C397.84,107.05,397.27,107.65,397.4,108Z" style="fill:#263238"></path><path d="M371.8,110c.5.6,2.35-.12,4.6-.24s4.17.24,4.58-.42c.18-.33-.14-.93-1-1.48a6.38,6.38,0,0,0-3.78-.86,6.45,6.45,0,0,0-3.62,1.39C371.81,109,371.58,109.66,371.8,110Z" style="fill:#263238"></path><path d="M427,127.86c.3-.15,12-4.1,12.12,8s-12.07,9.72-12.09,9.38S427,127.86,427,127.86Z" style="fill:#b78876"></path><path d="M430.68,140.62c.06,0,.22.14.57.3a2.11,2.11,0,0,0,1.58,0c1.28-.48,2.33-2.52,2.37-4.7a6.92,6.92,0,0,0-.62-3,2.43,2.43,0,0,0-1.6-1.61,1.08,1.08,0,0,0-1.24.59c-.16.34-.08.58-.14.6s-.26-.2-.17-.7a1.35,1.35,0,0,1,.47-.76,1.6,1.6,0,0,1,1.16-.32,3,3,0,0,1,2.22,1.86,7.05,7.05,0,0,1,.76,3.36c-.05,2.44-1.28,4.74-3,5.26a2.26,2.26,0,0,1-1.93-.3C430.71,140.91,430.64,140.64,430.68,140.62Z" style="fill:#995037"></path><path d="M374.79,91.79c-2-1.08,3.91-7.42,8.73-9.61,7.27-3.31,18.38-5.34,25.09-3.45C416.68,81,423.4,85,427.45,92.38s5.59,15.91,5.36,24.31c-.07,2.56-.33,5.23-1.7,7.39-1.69,2.68-4.93,4.37-4.79,8.06a5.07,5.07,0,0,1-1.25,3.69c-2.22,2.36-4.93.15-6.17-2.07-2.67-4.74-3-10.4-3.2-15.83-.17-3.86-.33-7.8.76-11.51.59-2,1.54-3.93,2-6a7.31,7.31,0,0,0-.87-6,7.41,7.41,0,0,0-1-1A12.63,12.63,0,0,0,404.11,91c-6.82,2.42-18.45,6-21.49,3.71-4.38-3.32-5.43-5.49-5.43-5.49Z" style="fill:#263238"></path><path d="M385,178.7s-.83,13.43-1,14.13S401.62,214,401.62,214s22.81-15.22,24.06-17.9,1.43-19.72,1.43-19.72Z" style="fill:#b78876"></path></g><g id="freepik--speech-bubble--inject-160"><path d="M162.6,130l-9-15.91a42.58,42.58,0,1,0-10.21,11.36h0Z" style="fill:#fafafa"></path><path d="M162.6,130l-19.27-4.41a.13.13,0,0,1-.1-.15s0,0,0-.05v0l.18.18A42.57,42.57,0,0,1,123,134.15a39.12,39.12,0,0,1-6.73.34c-1.16-.07-2.34-.1-3.53-.2l-3.6-.54a42.91,42.91,0,0,1-26.59-17.07,42.47,42.47,0,0,1-7.19-16.44,43.31,43.31,0,0,1,.5-18.93A42,42,0,0,1,85,63.81l1.74-1.91c.57-.65,1.25-1.18,1.87-1.77a25.5,25.5,0,0,1,1.93-1.68l2-1.53a19,19,0,0,1,2.12-1.4l2.16-1.31,2.26-1.09a18.64,18.64,0,0,1,2.28-1,43.41,43.41,0,0,1,19.07-2.93A42,42,0,0,1,138,54.34a43.26,43.26,0,0,1,20.2,24.86A46.14,46.14,0,0,1,160,93,42.47,42.47,0,0,1,158,105a43.59,43.59,0,0,1-4.26,9.16V114l8.91,16-9.13-15.85a.13.13,0,0,1,0-.12,43.3,43.3,0,0,0,4.19-9.13,41.93,41.93,0,0,0,2-11.86,45.66,45.66,0,0,0-1.88-13.71,42.9,42.9,0,0,0-20-24.56,41.52,41.52,0,0,0-17.31-5.09,43,43,0,0,0-18.85,2.91,19.72,19.72,0,0,0-2.25,1l-2.24,1.09L95,56a19,19,0,0,0-2.09,1.39l-2,1.5c-.69.49-1.27,1.12-1.91,1.67s-1.28,1.1-1.85,1.74L85.4,64.15a41.59,41.59,0,0,0-9,17.28,42.93,42.93,0,0,0-.51,18.71A42,42,0,0,0,83,116.4a42.55,42.55,0,0,0,26.28,16.95l3.56.54c1.18.11,2.35.14,3.5.21a37.53,37.53,0,0,0,6.67-.32,42.57,42.57,0,0,0,11.59-3.25,43.32,43.32,0,0,0,8.72-5.2.14.14,0,0,1,.19,0,.14.14,0,0,1,0,.15l0,0-.07-.2Z" style="fill:#263238"></path><path d="M111.77,86.08h2.49l5.42-7.56v-5s3.84-.23,3.39,6.26,0,4.84,0,4.84,8.15,0,8.83.74c.49.52.72,8.62.8,13a4.75,4.75,0,0,1-3.37,4.8,3.79,3.79,0,0,1-.88.11c-2,0-12.42-1.65-12.42-1.65h-4.3Z" style="fill:#263238"></path><polygon points="104.66 84.72 106.19 101.72 110.44 101.72 110.44 85.06 104.66 84.72" style="fill:#263238"></polygon></g><g id="freepik--Table--inject-160"><path d="M701.73,481.05c0,.14-146.3.26-326.71.26s-326.75-.12-326.75-.26,146.26-.26,326.75-.26S701.73,480.91,701.73,481.05Z" style="fill:#263238"></path></g></svg>